<svg xmlns="http://www.w3.org/2000/svg" data-name="Layer 1" viewBox="0 0 96 94.80000000000001" x="0px" y="0px"><title>25</title><path d="M63,24.13c.15-.3,1.19-2.17,5.14-3.1a3.12,3.12,0,0,0,2-1.45,2.9,2.9,0,0,0,.29-2.29,4.73,4.73,0,0,0-4.57-3.39.85.85,0,0,0-.6.2,11.21,11.21,0,0,1-6.77,2.39,10.13,10.13,0,0,1-3.17-.91l-.07,0-.83-.34c-5-2-12.57-5.15-24.81-1.28C8.34,20.64-.93,32.58,2.81,48.45a.82.82,0,0,0,.27.46l0,0a27.3,27.3,0,0,0,15.66,4.7q1.21,0,2.48-.1C34.86,52.41,58.93,44.94,63,24.13ZM30.1,15.49a35.08,35.08,0,0,1,10.61-1.76,28.86,28.86,0,0,1,9.18,1.51c-19.51-.35-31,6.54-37.4,12.66a38.38,38.38,0,0,0-8.8,12.66C4.51,26.69,18,19.32,30.1,15.49Zm-9,36.41A27.34,27.34,0,0,1,7,49.32c19.95.85,33.07-5.25,40.69-10.7C56.49,32.35,60,25.74,60.15,25.46a.82.82,0,0,0-1.46-.76c0,.06-3.52,6.6-12,12.64C39.53,42.44,27.35,48.13,9,47.74c5.92-1.88,10.83-4.61,16.33-7.67a147.82,147.82,0,0,1,16-8c10.52-4.37,16.21-7.78,16-9.61a.82.82,0,0,0-1.63,0c-.15.29-1.73,2.62-15,8.14a151.17,151.17,0,0,0-16.14,8.07C17.81,42.35,12,45.57,4.24,47.31q-.08-.37-.14-.73c2-2.67,19.28-24.44,52.41-25.87a.82.82,0,1,0-.07-1.64A72.86,72.86,0,0,0,3.78,44.33l0-.29a.82.82,0,0,0,.66-.6A35,35,0,0,1,13.7,29c6.64-6.37,19.16-13.6,41.09-11.9a11,11,0,0,0,3.67,1A12.74,12.74,0,0,0,66,15.56a3,3,0,0,1,2.8,2.18,1.27,1.27,0,0,1-.13,1,1.46,1.46,0,0,1-.92.68c-5.24,1.24-6.28,4.07-6.32,4.19a.89.89,0,0,0,0,.11C57.57,43.64,34.28,50.81,21.13,51.9Z" transform="translate(-2 -12.08)"/><path d="M96.73,68.61c1.24-3.06,2.94-7.25-2.5-9.79C59.4,42.61,44.35,47.06,37.86,53.67,34.73,56.08,33.19,59,33.3,62.3A13.78,13.78,0,0,0,36.44,70C40,78.33,48.6,87.92,69.16,87.92q1.34,0,2.75-.06c11.74-.46,19-2.5,22.19-6.22,2.38-2.78,2-5.88,1.77-8.15a8.15,8.15,0,0,1-.09-2.13A16.48,16.48,0,0,1,96.73,68.61ZM95.21,68a17.82,17.82,0,0,0-1,3.06,9,9,0,0,0,.07,2.63c.24,2.07.53,4.65-1.39,6.89-2.84,3.31-9.9,5.2-21,5.64-21.7.84-30.43-8.72-33.93-16.91a.82.82,0,0,0-.14-.22c-.06-.07-3.2-3.71-2.8-7.87a9.06,9.06,0,0,1,3.93-6.28l.09-.08c5-5.12,18.72-11.21,54.55,5.46C97.37,62.1,96.67,64.4,95.21,68Z" transform="translate(-2 -12.08)"/><path d="M90.38,60.46l-.1-.06c-1.3-.67-32.13-16.33-49-6.12-.67.43-4,2.68-3.91,4.78A1.56,1.56,0,0,0,38,60.32c.94.64,2.67.35,3.83,0L42,61.62c-1.6-.25-4.18-.39-5.12,1-1,1.58.63,3.78,1.18,4.51l.09.11.3.39.42.5c8.52,10.11,21.59,12.18,30.85,12.18A62.27,62.27,0,0,0,79,79.65c5.39-.82,11.55-2.58,12.36-4.5a3.65,3.65,0,0,0-1.57-5,19.07,19.07,0,0,1,2.63-2.22,3,3,0,0,0,1.4-2.48C93.78,63,90.72,60.72,90.38,60.46Zm1,6.09a20.82,20.82,0,0,0-3.09,2.66l-.25.25A.82.82,0,0,0,87.83,71a4.63,4.63,0,0,0,.42.22c1.3.62,2.39,1.34,1.56,3.32-.49.89-5.92,3.08-14.14,3.9-7.2.73-25.07,1.07-35.52-11.32l-.39-.47-.28-.35-.08-.11c-1.11-1.48-1.3-2.33-1.11-2.61s.9-.44,1.78-.44a12.44,12.44,0,0,1,2.76.34.82.82,0,0,0,1-.93l-.52-3.34a.82.82,0,0,0-1.08-.65A6.66,6.66,0,0,1,39,59c0-.83,1.82-2.46,3.14-3.31C57.88,46.15,88,61.08,89.46,61.83c.75.55,2.67,2.26,2.67,3.58A1.36,1.36,0,0,1,91.42,66.56Z" transform="translate(-2 -12.08)"/><polygon points="80.72 47.59 80.72 47.59 80.72 47.59 80.72 47.59"/><path d="M90.21,64c-.47-.47-4.68-4.56-7.49-4.37a12.36,12.36,0,0,0-2.1.32,13.44,13.44,0,0,0-7.46-2,.86.86,0,0,0-.19-.29c-.47-.46-7.77-4.75-13.82-2.61-1.27-.5-6.19-2.22-9.9-.53-4.47,2-4.5,4.52-4.18,8.72a.81.81,0,0,0,.4.63A4.76,4.76,0,0,0,45,68c1,3,4.36,5.11,8.33,5.38a4.55,4.55,0,0,0,.37.94l0,.06c1,1.41,3.35,1.81,5.66,1.81a29.93,29.93,0,0,0,4.88-.46,3.2,3.2,0,0,0,1.36,1.75.82.82,0,0,0,.44.15c.18,0,1.74.06,3.88.06,4.12,0,10.39-.19,13.08-1.27a4.42,4.42,0,0,0,2.93-3,6.18,6.18,0,0,0-1.22-4.73C88,68.19,89.9,67.29,90.46,66a1.93,1.93,0,0,0-.16-1.87ZM78.65,60.75a3.25,3.25,0,0,0-.79.61l0,.06c-2.8,3.92-4,5.42-4.21,5.62-1.74,1.73-3.27,2.54-4.55,2.38a4,4,0,0,1-2.75-2.22,6.65,6.65,0,0,1-1.06-2.69h0a2.34,2.34,0,0,1,.07-.9,1.44,1.44,0,0,1,.67-.87.83.83,0,0,0,.21-.13C71.41,58.13,76.38,59.64,78.65,60.75ZM70.87,58.3a13.68,13.68,0,0,0-5.66,3,3.08,3.08,0,0,0-1.44,1.78s0,.1,0,.15c-2.63-1.62-5.61-4-5.52-5.4,0-.41.44-.78,1.23-1.09C63.6,55.07,68.71,57.16,70.87,58.3ZM49.94,56c2.36-1.08,5.5-.42,7.34.13a2.4,2.4,0,0,0-.71,1.53c-.18,2.71,4.46,5.81,6.61,7.1L60,64.87a5.65,5.65,0,0,0-.86.09c-.66-.6-7.29-6.42-12.15-2.67l-.3.24C46.41,58.87,46.64,57.54,49.94,56ZM46.57,67.52A3.41,3.41,0,0,1,48,63.59c3.12-2.41,7.64.66,9.36,2-.13.07-.25.13-.38.22-3,2.05-3.8,4.26-3.83,5.91C49.63,71.41,47.2,69.44,46.57,67.52Zm17.84,6.55c-3.34.64-8.21.87-9.3-.57a3.36,3.36,0,0,1-.31-1v-.06c-.18-1.2.11-3.25,3.08-5.25A4,4,0,0,1,60,66.52l4.07-.09a11.16,11.16,0,0,0,.82,1.63,6.48,6.48,0,0,0,2.66,2.61A8.51,8.51,0,0,0,64.41,74.06Zm20-1a2.89,2.89,0,0,1-2,1.84C79,76.31,68.2,76.07,66.41,76c-.6-.48-.57-.87-.56-1,.09-1.27,2.56-3.09,4.33-4a8.41,8.41,0,0,0,4-2.22,6.41,6.41,0,0,0,3.72.87A25.47,25.47,0,0,0,83,69C84.11,70.54,84.65,72,84.39,73.07Zm4.54-7.69c-.15.3-1,1.34-5.76,1.93l-.09,0c-3.1.74-6.66,1-7.81.27.59-.74,1.8-2.31,3.84-5.16.15-.13,1.13-.94,3.72-1.12h0c1.53-.09,4.53,2.25,6.14,3.81A.33.33,0,0,1,88.94,65.38Z" transform="translate(-2 -12.08)"/></svg>
