<svg xmlns="http://www.w3.org/2000/svg" data-name="Layer 1" width="97" height="97"><rect id="backgroundrect" width="100%" height="100%" x="0" y="0" fill="none" stroke="none" class="" style=""/><title>25</title><g class="currentLayer" style=""><title>Layer 1</title><path d="M60.999385833740234,23.846377973556518 c0.15000000000000024,-0.3000000000000003 1.19,-2.17 5.14,-3.1 a3.12,3.12 0 0 0 2,-1.45 a2.9,2.9 0 0 0 0.2900000000000003,-2.29 a4.73,4.73 0 0 0 -4.57,-3.39 a0.8500000000000006,0.8500000000000006 0 0 0 -0.6000000000000006,0.2 a11.21,11.21 0 0 1 -6.77,2.39 a10.13,10.13 0 0 1 -3.17,-0.91 l-0.07,0 l-0.8300000000000006,-0.34000000000000147 c-5,-2 -12.57,-5.15 -24.81,-1.28 C6.339385833740234,20.35637797355652 -2.9306141662597662,32.296377973556524 0.8093858337402344,48.16637797355652 a0.8200000000000006,0.8200000000000006 0 0 0 0.27,0.46 l0,0 a27.3,27.3 0 0 0 15.66,4.7 q1.21,0 2.48,-0.1 C32.859385833740234,52.126377973556515 56.929385833740234,44.65637797355652 60.999385833740234,23.846377973556518 zM28.099385833740236,15.206377973556519 a35.08,35.08 0 0 1 10.61,-1.7600000000000002 a28.86,28.86 0 0 1 9.18,1.51 c-19.51,-0.3500000000000003 -31,6.54 -37.4,12.66 a38.38,38.38 0 0 0 -8.8,12.66 C2.509385833740234,26.40637797355652 15.999385833740234,19.03637797355652 28.099385833740236,15.206377973556519 zm-9,36.41 A27.34,27.34 0 0 1 4.999385833740234,49.03637797355652 c19.95,0.8500000000000006 33.07,-5.25 40.69,-10.7 C54.489385833740236,32.06637797355652 57.999385833740234,25.45637797355652 58.14938583374023,25.17637797355652 a0.8200000000000006,0.8200000000000006 0 0 0 -1.46,-0.7600000000000025 c0,0.0600000000000002 -3.52,6.6 -12,12.64 C37.529385833740236,42.15637797355652 25.349385833740236,47.84637797355652 6.999385833740234,47.45637797355652 c5.92,-1.8800000000000003 10.83,-4.61 16.33,-7.67 a147.82,147.82 0 0 1 16,-8 c10.52,-4.37 16.21,-7.78 16,-9.61 a0.8200000000000006,0.8200000000000006 0 0 0 -1.6300000000000003,0 c-0.15000000000000024,0.2900000000000003 -1.73,2.62 -15,8.14 a151.17,151.17 0 0 0 -16.14,8.07 C15.809385833740233,42.06637797355653 9.999385833740234,45.28637797355652 2.2393858337402346,47.02637797355652 q-0.08000000000000022,-0.3700000000000011 -0.14,-0.7300000000000006 c2,-2.67 19.28,-24.44 52.41,-25.87 a0.8200000000000006,0.8200000000000006 0 1 0 -0.07,-1.6400000000000001 A72.86,72.86 0 0 0 1.7793858337402346,44.04637797355652 l0,-0.2900000000000003 a0.8200000000000006,0.8200000000000006 0 0 0 0.6600000000000029,-0.6000000000000006 A35,35 0 0 1 11.699385833740234,28.71637797355652 c6.6400000000000015,-6.37 19.16,-13.6 41.09,-11.9 a11,11 0 0 0 3.67,1 A12.74,12.74 0 0 0 63.999385833740234,15.276377973556519 a3,3 0 0 1 2.8,2.18 a1.27,1.27 0 0 1 -0.13,1 a1.46,1.46 0 0 1 -0.92,0.6800000000000029 c-5.24,1.24 -6.28,4.07 -6.32,4.19 a0.8900000000000025,0.8900000000000025 0 0 0 0,0.11000000000000022 C55.569385833740235,43.35637797355652 32.279385833740236,50.52637797355652 19.129385833740233,51.616377973556524 z" id="svg_1" class="" fill-opacity="1" fill="#522f2c"/><path d="M94.72938583374024,67.66848324298859 c1.24,-3.06 2.94,-7.25 -2.5,-9.79 C57.39938583374023,41.668483242988586 42.349385833740236,46.11848324298859 35.859385833740234,52.72848324298859 C32.72938583374023,55.138483242988585 31.189385833740232,58.058483242988586 31.29938583374023,61.358483242988584 A13.78,13.78 0 0 0 34.43938583374023,69.05848324298859 C37.999385833740234,77.38848324298858 46.599385833740236,86.97848324298859 67.15938583374023,86.97848324298859 q1.34,0 2.75,-0.06000000000000019 c11.74,-0.46 19,-2.5 22.19,-6.22 c2.38,-2.7800000000000002 2,-5.88 1.77,-8.15 a8.15,8.15 0 0 1 -0.09000000000000041,-2.13 A16.48,16.48 0 0 1 94.72938583374024,67.66848324298859 zM93.20938583374023,67.05848324298859 a17.82,17.82 0 0 0 -1,3.06 a9,9 0 0 0 0.07,2.63 c0.2400000000000002,2.07 0.53,4.65 -1.3900000000000001,6.8900000000000015 c-2.84,3.31 -9.9,5.2 -21,5.6400000000000015 c-21.7,0.8400000000000006 -30.43,-8.72 -33.93,-16.91 a0.8200000000000006,0.8200000000000006 0 0 0 -0.14,-0.22000000000000056 c-0.06000000000000019,-0.07 -3.2,-3.71 -2.8,-7.87 a9.06,9.06 0 0 1 3.93,-6.28 l0.09000000000000041,-0.08000000000000022 c5,-5.12 18.72,-11.21 54.55,5.46 C95.36938583374024,61.158483242988595 94.66938583374024,63.4584832429886 93.20938583374023,67.05848324298859 z" id="svg_2" class="" fill-opacity="1" fill="#522f2c"/><path d="M88.37938583374023,59.51848324298859 l-0.1,-0.06000000000000019 c-1.3,-0.6700000000000028 -32.13,-16.33 -49,-6.12 c-0.6700000000000028,0.4300000000000003 -4,2.68 -3.91,4.78 A1.56,1.56 0 0 0 35.999385833740234,59.37848324298859 c0.9400000000000006,0.6400000000000023 2.67,0.3500000000000003 3.83,0 L39.999385833740234,60.678483242988584 c-1.6,-0.25 -4.18,-0.3900000000000012 -5.12,1 c-1,1.58 0.6300000000000021,3.7800000000000002 1.18,4.51 l0.09000000000000041,0.11000000000000022 l0.3000000000000003,0.3900000000000012 l0.4200000000000003,0.5 c8.52,10.11 21.59,12.18 30.85,12.18 A62.27,62.27 0 0 0 76.99938583374023,78.70848324298859 c5.39,-0.8200000000000006 11.55,-2.58 12.36,-4.5 a3.6500000000000004,3.6500000000000004 0 0 0 -1.57,-5 a19.07,19.07 0 0 1 2.63,-2.22 a3,3 0 0 0 1.4,-2.48 C91.77938583374024,62.058483242988586 88.71938583374023,59.778483242988585 88.37938583374023,59.51848324298859 zm1,6.09 a20.82,20.82 0 0 0 -3.09,2.66 l-0.25,0.25 A0.8200000000000006,0.8200000000000006 0 0 0 85.82938583374023,70.05848324298859 a4.63,4.63 0 0 0 0.4200000000000003,0.22000000000000056 c1.3,0.6200000000000021 2.39,1.34 1.56,3.3200000000000003 c-0.4900000000000003,0.8900000000000023 -5.92,3.08 -14.14,3.9 c-7.2,0.7300000000000006 -25.07,1.07 -35.52,-11.32 l-0.3900000000000012,-0.4700000000000003 l-0.28,-0.3500000000000003 l-0.08000000000000022,-0.11000000000000022 c-1.11,-1.48 -1.3,-2.33 -1.11,-2.6100000000000003 s0.9,-0.44000000000000106 1.78,-0.44000000000000106 a12.44,12.44 0 0 1 2.7600000000000002,0.3400000000000014 a0.8200000000000006,0.8200000000000006 0 0 0 1,-0.93 l-0.52,-3.34 a0.8200000000000006,0.8200000000000006 0 0 0 -1.08,-0.6500000000000024 A6.66,6.66 0 0 1 36.999385833740234,58.058483242988586 c0,-0.8300000000000006 1.82,-2.46 3.14,-3.31 C55.87938583374024,45.208483242988585 85.99938583374023,60.138483242988585 87.45938583374023,60.888483242988585 c0.7500000000000021,0.55 2.67,2.26 2.67,3.58 A1.36,1.36 0 0 1 89.41938583374024,65.61848324298859 z" id="svg_3" class=""/><polygon points="80.7193832397461,58.728474259376526 80.7193832397461,58.728474259376526 80.7193832397461,58.728474259376526 80.7193832397461,58.728474259376526 " id="svg_4" class=""/><path d="M88.20938583374023,63.058483242988586 c-0.4700000000000003,-0.4700000000000003 -4.68,-4.5600000000000005 -7.49,-4.37 a12.36,12.36 0 0 0 -2.1,0.3200000000000012 a13.44,13.44 0 0 0 -7.46,-2 a0.8600000000000021,0.8600000000000021 0 0 0 -0.19000000000000056,-0.2900000000000003 c-0.4700000000000003,-0.46 -7.77,-4.75 -13.82,-2.6100000000000003 c-1.27,-0.5 -6.19,-2.22 -9.9,-0.53 c-4.47,2 -4.5,4.52 -4.18,8.72 a0.81,0.81 0 0 0 0.4,0.6300000000000021 A4.76,4.76 0 0 0 42.999385833740234,67.05848324298859 c1,3 4.36,5.11 8.33,5.38 a4.55,4.55 0 0 0 0.37000000000000105,0.9400000000000006 l0,0.06000000000000019 c1,1.4100000000000001 3.35,1.81 5.66,1.81 a29.93,29.93 0 0 0 4.88,-0.46 a3.2,3.2 0 0 0 1.36,1.75 a0.8200000000000006,0.8200000000000006 0 0 0 0.44000000000000106,0.15000000000000024 c0.18000000000000024,0 1.7400000000000002,0.06000000000000019 3.88,0.06000000000000019 c4.12,0 10.39,-0.19000000000000056 13.08,-1.27 a4.42,4.42 0 0 0 2.93,-3 a6.18,6.18 0 0 0 -1.22,-4.73 C85.99938583374023,67.24848324298858 87.89938583374024,66.34848324298859 88.45938583374023,65.05848324298859 a1.9300000000000002,1.9300000000000002 0 0 0 -0.1600000000000006,-1.87 zM76.64938583374024,59.808483242988586 a3.25,3.25 0 0 0 -0.79,0.6100000000000021 l0,0.06000000000000019 c-2.8,3.92 -4,5.42 -4.21,5.62 c-1.7400000000000002,1.73 -3.27,2.54 -4.55,2.38 a4,4 0 0 1 -2.75,-2.22 a6.65,6.65 0 0 1 -1.06,-2.6900000000000004 h0 a2.34,2.34 0 0 1 0.07,-0.9 a1.44,1.44 0 0 1 0.6700000000000028,-0.8700000000000021 a0.8300000000000006,0.8300000000000006 0 0 0 0.21000000000000021,-0.13 C69.40938583374023,57.18848324298859 74.37938583374023,58.69848324298859 76.64938583374024,59.808483242988586 zM68.86938583374024,57.358483242988584 a13.68,13.68 0 0 0 -5.66,3 a3.08,3.08 0 0 0 -1.44,1.78 s0,0.1 0,0.15000000000000024 c-2.63,-1.62 -5.61,-4 -5.52,-5.4 c0,-0.4100000000000003 0.44000000000000106,-0.78 1.23,-1.09 C61.599385833740236,54.12848324298859 66.70938583374023,56.21848324298858 68.86938583374024,57.358483242988584 zM47.93938583374023,55.058483242988586 c2.36,-1.08 5.5,-0.4200000000000003 7.34,0.13 a2.4,2.4 0 0 0 -0.7100000000000006,1.53 c-0.18000000000000024,2.71 4.46,5.8100000000000005 6.61,7.1 L57.999385833740234,63.92848324298859 a5.65,5.65 0 0 0 -0.8600000000000021,0.09000000000000041 c-0.6600000000000028,-0.6000000000000006 -7.29,-6.42 -12.15,-2.67 l-0.3000000000000003,0.2400000000000002 C44.40938583374023,57.928483242988584 44.639385833740235,56.598483242988586 47.93938583374023,55.058483242988586 zM44.569385833740235,66.57848324298858 A3.41,3.41 0 0 1 45.999385833740234,62.64848324298859 c3.12,-2.41 7.6400000000000015,0.6600000000000028 9.36,2 c-0.13,0.07 -0.25,0.13 -0.38000000000000106,0.22000000000000056 c-3,2.05 -3.8,4.26 -3.83,5.91 C47.62938583374024,70.46848324298858 45.19938583374024,68.49848324298858 44.569385833740235,66.57848324298858 zm17.84,6.55 c-3.34,0.6400000000000023 -8.21,0.8700000000000021 -9.3,-0.5700000000000006 a3.36,3.36 0 0 1 -0.31000000000000105,-1 v-0.06000000000000019 c-0.18000000000000024,-1.2 0.11000000000000022,-3.25 3.08,-5.25 A4,4 0 0 1 57.999385833740234,65.57848324298858 l4.07,-0.09000000000000041 a11.16,11.16 0 0 0 0.8200000000000006,1.6300000000000003 a6.48,6.48 0 0 0 2.66,2.6100000000000003 A8.51,8.51 0 0 0 62.40938583374023,73.11848324298859 zm20,-1 a2.89,2.89 0 0 1 -2,1.84 C76.99938583374023,75.36848324298859 66.19938583374024,75.12848324298858 64.40938583374023,75.05848324298859 c-0.6000000000000006,-0.4800000000000003 -0.5700000000000006,-0.8700000000000021 -0.56,-1 c0.09000000000000041,-1.27 2.56,-3.09 4.33,-4 a8.41,8.41 0 0 0 4,-2.22 a6.41,6.41 0 0 0 3.72,0.8700000000000021 A25.47,25.47 0 0 0 80.99938583374023,68.05848324298859 C82.10938583374023,69.5984832429886 82.64938583374024,71.05848324298859 82.38938583374023,72.12848324298858 zm4.54,-7.69 c-0.15000000000000024,0.3000000000000003 -1,1.34 -5.76,1.9300000000000002 l-0.09000000000000041,0 c-3.1,0.7400000000000021 -6.66,1 -7.8100000000000005,0.27 c0.5900000000000006,-0.7400000000000021 1.8,-2.31 3.84,-5.16 c0.15000000000000024,-0.13 1.13,-0.9400000000000006 3.72,-1.12 h0 c1.53,-0.09000000000000041 4.53,2.25 6.14,3.81 A0.3300000000000012,0.3300000000000012 0 0 1 86.93938583374023,64.43848324298858 z" id="svg_5" class="" fill-opacity="1" fill="#522f2c"/></g></svg>