<svg xmlns="http://www.w3.org/2000/svg" width="97" height="97"><path d="M61 23.846c.15-.3 1.2-2.17 5.14-3.1a3.12 3.12 0 0 0 2-1.45 2.9 2.9 0 0 0 .29-2.29 4.73 4.73 0 0 0-4.57-3.39.85.85 0 0 0-.6.2 11.21 11.21 0 0 1-6.77 2.39 10.13 10.13 0 0 1-3.17-.91h-.07l-.83-.34c-5-2-12.57-5.15-24.8-1.28-21.27 6.68-30.54 18.62-26.8 34.5a.82.82 0 0 0 .27.46h0a27.3 27.3 0 0 0 15.66 4.7q1.2 0 2.48-.1c13.64-1.1 37.7-8.57 41.78-29.38zm-32.9-8.64a35.08 35.08 0 0 1 10.61-1.76 28.86 28.86 0 0 1 9.18 1.51c-19.5-.35-31 6.54-37.4 12.66a38.38 38.38 0 0 0-8.8 12.66c.82-13.87 14.3-21.24 26.4-25.07zm-9 36.4A27.34 27.34 0 0 1 5 49.026c19.95.85 33.07-5.25 40.7-10.7 8.8-6.27 12.3-12.88 12.46-13.16a.823.823 0 0 0-1.46-.76c0 .06-3.52 6.6-12 12.64-7.16 5.1-19.34 10.8-37.7 10.4 5.92-1.88 10.83-4.6 16.33-7.67a147.82 147.82 0 0 1 16-8c10.52-4.37 16.2-7.78 16-9.6a.82.82 0 0 0-1.63 0c-.15.3-1.73 2.62-15 8.14a151.17 151.17 0 0 0-16.14 8.07c-6.75 3.68-12.56 6.9-20.32 8.64q-.08-.37-.14-.73c2-2.67 19.28-24.44 52.4-25.87a.821.821 0 1 0-.07-1.64 72.86 72.86 0 0 0-52.66 25.26v-.3a.82.82 0 0 0 .66-.6 35 35 0 0 1 9.26-14.44c6.64-6.37 19.16-13.6 41.1-11.9a11 11 0 0 0 3.67 1 12.74 12.74 0 0 0 7.54-2.54 3 3 0 0 1 2.8 2.18 1.27 1.27 0 0 1-.13 1 1.46 1.46 0 0 1-.92.68c-5.24 1.24-6.28 4.07-6.32 4.2a.89.89 0 0 0 0 .11c-3.86 19.92-27.15 27.1-40.3 28.18zm75.63 16.062c1.24-3.06 2.94-7.25-2.5-9.8-34.83-16.2-49.88-11.76-56.37-5.15-3.13 2.4-4.67 5.33-4.56 8.63a13.78 13.78 0 0 0 3.14 7.7c3.56 8.33 12.16 17.92 32.72 17.92q1.34 0 2.75-.06c11.74-.46 19-2.5 22.2-6.22 2.38-2.78 2-5.88 1.77-8.15a8.15 8.15 0 0 1-.09-2.13 16.48 16.48 0 0 1 .95-2.75zm-1.52-.6a17.82 17.82 0 0 0-1 3.06 9 9 0 0 0 .07 2.63c.24 2.07.53 4.65-1.4 6.9-2.84 3.3-9.9 5.2-21 5.64-21.7.84-30.43-8.72-33.93-16.9a.82.82 0 0 0-.14-.22c-.06-.07-3.2-3.7-2.8-7.87a9.06 9.06 0 0 1 3.93-6.28l.1-.08c5-5.12 18.72-11.2 54.55 5.46 3.78 1.78 3.08 4.08 1.62 7.68zm-4.83-7.55l-.1-.06c-1.3-.67-32.13-16.33-49-6.12-.67.43-4 2.68-3.9 4.78a1.56 1.56 0 0 0 .63 1.26c.94.64 2.67.35 3.83 0l.17 1.3c-1.6-.25-4.18-.4-5.12 1-1 1.58.63 3.78 1.18 4.5l.1.1.3.4.42.5c8.52 10.1 21.6 12.18 30.85 12.18a62.27 62.27 0 0 0 9.28-.66c5.4-.82 11.55-2.58 12.36-4.5a3.65 3.65 0 0 0-1.57-5 19.07 19.07 0 0 1 2.63-2.22 3 3 0 0 0 1.4-2.48c-.04-2.45-3.1-4.73-3.44-5zm1 6.1a20.82 20.82 0 0 0-3.09 2.66l-.25.25a.82.82 0 0 0-.21 1.54 4.63 4.63 0 0 0 .42.22c1.3.62 2.4 1.34 1.56 3.32-.5.9-5.92 3.08-14.14 3.9-7.2.73-25.07 1.07-35.52-11.32l-.4-.47-.36-.45c-1.1-1.48-1.3-2.33-1.1-2.6s.9-.44 1.78-.44a12.44 12.44 0 0 1 2.76.34.82.82 0 0 0 1-.93l-.52-3.34a.82.82 0 0 0-1.08-.65 6.66 6.66 0 0 1-3.23.44c0-.83 1.82-2.46 3.14-3.3 15.74-9.54 45.86 5.4 47.32 6.14.75.55 2.67 2.26 2.67 3.58a1.36 1.36 0 0 1-.71 1.15z" fill="#522f2c"/><path d="M80.72 58.728h0z"/><path d="M88.21 63.058c-.47-.47-4.68-4.56-7.5-4.37a12.36 12.36 0 0 0-2.1.32 13.44 13.44 0 0 0-7.46-2 .86.86 0 0 0-.19-.29c-.47-.46-7.77-4.75-13.82-2.6-1.27-.5-6.2-2.22-9.9-.53-4.47 2-4.5 4.52-4.18 8.72a.81.81 0 0 0 .4.63 4.76 4.76 0 0 0-.47 4.13c1 3 4.36 5.1 8.33 5.38a4.55 4.55 0 0 0 .37.94v.06c1 1.4 3.35 1.8 5.66 1.8a29.93 29.93 0 0 0 4.88-.46 3.2 3.2 0 0 0 1.36 1.75.82.82 0 0 0 .44.15c.18 0 1.74.06 3.88.06 4.12 0 10.4-.2 13.08-1.27a4.42 4.42 0 0 0 2.93-3 6.18 6.18 0 0 0-1.22-4.73c3.3-.5 5.2-1.4 5.75-2.7a1.93 1.93 0 0 0-.16-1.87zm-11.56-3.25a3.25 3.25 0 0 0-.79.61v.06c-2.8 3.92-4 5.42-4.2 5.62-1.74 1.73-3.27 2.54-4.55 2.38a4 4 0 0 1-2.75-2.22 6.65 6.65 0 0 1-1.06-2.69h0a2.34 2.34 0 0 1 .07-.9 1.44 1.44 0 0 1 .67-.87.83.83 0 0 0 .21-.13c5.17-4.48 10.14-2.97 12.4-1.86zm-7.78-2.45a13.68 13.68 0 0 0-5.66 3 3.08 3.08 0 0 0-1.44 1.78v.15c-2.63-1.62-5.6-4-5.52-5.4 0-.4.44-.78 1.23-1.1 4.12-1.67 9.23.42 11.4 1.56zm-20.93-2.3c2.36-1.08 5.5-.42 7.34.13a2.4 2.4 0 0 0-.71 1.53c-.18 2.7 4.46 5.8 6.6 7.1l-3.18.1a5.65 5.65 0 0 0-.86.09c-.66-.6-7.3-6.42-12.15-2.67l-.3.24c-.28-3.66-.05-5 3.25-6.53zm-3.37 11.52a3.41 3.41 0 0 1 1.43-3.93c3.12-2.4 7.64.66 9.36 2-.13.07-.25.13-.38.22-3 2.05-3.8 4.26-3.83 5.9-3.52-.3-5.95-2.28-6.58-4.2zm17.84 6.55c-3.34.64-8.2.87-9.3-.57a3.36 3.36 0 0 1-.31-1v-.06c-.18-1.2.1-3.25 3.08-5.25a4 4 0 0 1 2.12-.67l4.07-.1a11.16 11.16 0 0 0 .82 1.63 6.48 6.48 0 0 0 2.66 2.61 8.51 8.51 0 0 0-3.14 3.39zm20-1a2.89 2.89 0 0 1-2 1.84c-3.4 1.4-14.2 1.16-16 1.1-.6-.48-.57-.87-.56-1 .1-1.27 2.56-3.1 4.33-4a8.41 8.41 0 0 0 4-2.22 6.41 6.41 0 0 0 3.72.87 25.47 25.47 0 0 0 5.1-.65c1.1 1.54 1.65 3 1.4 4.07zm4.54-7.7c-.15.3-1 1.34-5.76 1.93h-.1c-3.1.74-6.66 1-7.8.27.6-.74 1.8-2.3 3.84-5.16.15-.13 1.13-.94 3.72-1.12h0c1.53-.1 4.53 2.25 6.14 3.8a.33.33 0 0 1-.05.27z" fill="#522f2c"/></svg>