<svg xmlns="http://www.w3.org/2000/svg" height="682.667" viewBox="0 0 512 512" width="682.667"><path d="M467 45c-24.812 0-45 20.188-45 45v114.578c-15.832-5.57-34.18-2.04-46.82 10.602L262.926 327.434c-2.516 2.516-4.82 5.188-6.926 7.984-2.105-2.797-4.4-5.47-6.926-7.984L136.82 215.18c-12.64-12.64-30.988-16.172-46.82-10.602V90c0-24.812-20.187-45-45-45S0 65.188 0 90v206.672l75 144V512h362v-71.328l75-144V90c0-24.812-20.187-45-45-45zM30 289.328V90c0-8.27 6.73-15 15-15s15 6.73 15 15v157.5c.14 11.832 4.8 22.938 13.18 31.32l112.2 112.207 21.2-21.2-112.207-112.2a15.02 15.02 0 0 1 0-21.211 15.02 15.02 0 0 1 21.211 0l112.254 112.25c8.473 8.477 13.14 19.8 13.14 31.855V482H105v-48.672zm452 0l-75 144V482H271V380.5c0-12.066 4.668-23.38 13.14-31.852l112.254-112.254C399.227 233.56 402.992 232 407 232s7.773 1.56 10.605 4.395a14.9 14.9 0 0 1 0 21.211l-112.207 112.2 21.2 21.2L438.82 278.82c8.645-8.645 13.02-19.965 13.145-31.32C452 247.5 452 90 452 90c0-8.27 6.73-15 15-15s15 6.73 15 15zm-226 2.606L367.324 180.6C383.238 164.695 392 143.543 392 121.04s-8.762-43.656-24.676-59.566a85.32 85.32 0 0 0-6.324-5.72V0h-90v45.227a82.76 82.76 0 0 0-15 9.332 84.03 84.03 0 0 0-15-9.359V0h-30v37.07a86.23 86.23 0 0 0-6.758-.27A84.65 84.65 0 0 0 181 40.051V0h-30v55.75a84.61 84.61 0 0 0-6.324 5.723c-32.848 32.844-32.848 86.3 0 119.133zM165.887 82.688C176.133 72.44 189.754 66.8 204.242 66.8s28.1 5.64 38.352 15.887c.727.727 1.445 1.492 2.203 2.336L256 97.6l11.203-12.586a54.34 54.34 0 0 1 2.2-2.336c6.043-6.043 13.2-10.46 21.3-13.133l10.297-3.4V30h30v41.352l6.703 4.453a54.33 54.33 0 0 1 8.41 6.883A53.86 53.86 0 0 1 362 121.04c0 14.5-5.64 28.1-15.887 38.355L256 249.508l-90.113-90.113c-21.148-21.148-21.148-55.56 0-76.707zm0 0"/></svg>