<svg xmlns="http://www.w3.org/2000/svg" xmlns:xlink="http://www.w3.org/1999/xlink" version="1.1" baseProfile="basic" xml:space="preserve" width="80" height="72"><rect id="backgroundrect" width="100%" height="100%" x="0" y="0" fill="none" stroke="none"/><g class="currentLayer" style=""><title>Layer 1</title><g id="svg_1" class="selected" fill-opacity="1" fill="#522f2c"><path d="M23.535219821929932,32.87450022125244 l11.648,-12.842 L40.00021982192993,29.241500221252444 l7.354,14.062 l6.602,-11.347 h24.087 c3.708,-8.342 2.1470000000000002,-18.459 -4.695,-25.3 c-8.874,-8.874 -23.26,-8.874 -32.134,0 L40.00021982192993,7.870500221252442 l0,0 l0,0 l-1.215,-1.215 c-8.873,-8.874 -23.26,-8.874 -32.134,0 C-0.4437801780700683,13.750500221252441 -1.8597801780700682,24.366500221252444 2.3902198219299313,32.87450022125244 H23.535219821929932 z" id="svg_2" fill="#522f2c"/><path d="M57.02421982192993,37.290500221252444 l-9.92,17.045 L40.00021982192993,40.750500221252445 l-6.001,-11.474 l-8.101,8.931000000000001 H6.098219821929932 c0.18200000000000002,0.19500000000000003 0.36300000000000004,0.39200000000000007 0.553,0.5820000000000001 l17.282,17.282 c0,0 0,0 0,0 L40.00021982192993,72.13850022125244 l16.067,-16.067 c0,0 0,0 0,0 l17.282,-17.282 c0.48300000000000004,-0.48300000000000004 0.935,-0.986 1.366,-1.5 H57.02421982192993 z" id="svg_3" fill="#522f2c"/></g></g></svg>