<svg xmlns="http://www.w3.org/2000/svg" height="56" width="56"><rect id="backgroundrect" width="100%" height="100%" x="0" y="0" fill="none" stroke="none"/><g class="currentLayer" style=""><title>Layer 1</title><g id="006---Healthy-Lungs" class="" fill-opacity="1" fill="#522f2c"><path id="Shape" d="m6.172998568632009,44.806001052856445 l2.63,-0.91 c6.1017321,-2.1118006 10.1950319,-7.8581561 10.197,-14.315 v-9.074 c-0.6428725000000002,0.26529119999999995 -1.3138605,0.4565228000000001 -2,0.5700000000000002 c-0.51607,-0.001335400000000001 -0.9463626999999998,-0.3951634000000001 -0.9932726,-0.9090987 s0.3049724000000002,-0.9791568999999998 0.8122726,-1.0739013 c1.6438804,-0.3459424000000002 3.1452365,-1.1795644 4.308,-2.392 c0.3538211000000001,-0.3833986000000002 0.8517876000000002,-0.6014596000000002 1.3735,-0.6014596000000002 s1.0196789,0.21806100000000006 1.3735,0.6014596000000002 c1.1636086,1.2129088000000001 2.6660667,2.0465622 4.311,2.392 c0.543172,0.10106810000000002 0.9015680999999998,0.6233280000000002 0.8005,1.1665 s-0.6233280000000002,0.9015680999999998 -1.1665,0.8005 c-0.6215217000000002,-0.13051780000000004 -1.2302405,-0.3159110000000001 -1.819,-0.554 v9.074 c0.0020131000000000007,3.1287877 0.9758842,6.1796913 2.787,8.731 c2.2779279,-6.8222434 9.085941,-11.0599827 16.213,-10.092 v-2.379 c-0.029466400000000014,-8.1740272 -5.0597861,-15.496735 -12.679,-18.457 c-1.4670297,-0.56476979 -3.1200233,-0.3507962 -4.3948944,0.5689019700000002 s-1.9993118,2.42081723 -1.9261056,3.99109803 c-0.015255300000000006,0.8145954000000002 0.2939188000000002,1.6018468000000001 0.8594263,2.1883616 s1.3409637,0.9241849 2.1555737,0.9386384000000002 c0.5519152,0.008224700000000003 0.9927889,0.4620785000000001 0.985,1.014 c-0.029544800000000006,0.5430176 -0.4713543000000001,0.9722038999999998 -1.015,0.986 c-2.6928963,-0.03936910000000002 -4.8784123,-2.1900825 -4.961,-4.882 c-0.03700000000000001,-0.3000000000000001 -0.024000000000000007,-1.988 -0.024000000000000007,-10.689 c0,-0.82842712 -0.6715729,-1.5 -1.5,-1.5 s-1.5,0.67157288 -1.5,1.5 c0,8.7 0.013000000000000006,10.388 -0.024000000000000007,10.689 c-0.08258770000000003,2.6919175 -2.2681037,4.8426309 -4.961,4.882 c-0.5522847,0.008284300000000007 -1.0067157,-0.4327153 -1.015,-0.985 s0.4327153,-1.0067157 0.985,-1.015 c0.8146100000000002,-0.014453500000000003 1.5900661999999999,-0.3521236000000001 2.1555737,-0.9386384000000002 s0.8746816000000004,-1.3737662 0.8594263,-2.1883616 c0.07299810000000002,-1.5703638999999998 -0.6517155000000002,-3.07144682 -1.9268108000000002,-3.99095954 c-1.2750953,-0.9195127099999997 -2.9282174,-1.13316454 -4.3951892,-0.5680404600000002 c-7.61884608,2.9599929 -12.64884403,10.282413 -12.678,18.456 v14.57 c-0.0004806900000000004,1.5047644 0.72723253,2.9167407 1.95305005,3.7894878 c1.22581751,0.8727472000000004 2.79818551,1.0983631 4.21994995,0.6055122 z" fill="#522f2c"/><path id="Shape" d="m42.104998568632006,39.184001052856445 c-0.6679473000000002,-1.2851007 -1.9897608,-2.0974893 -3.438,-2.113 c-2.33,0 -3.6670000000000007,1.458 -3.6670000000000007,4 c0,2.848 1.6820000000000004,3.931 3.04,5.293 c0.984,0.984 3.707,3.325 4.96,4.394 c1.2530000000000001,-1.069 3.976,-3.41 4.96,-4.394 c1.445,-1.449 3.04,-2.46 3.04,-5.293 c0,-2.542 -1.3370000000000002,-4 -3.6670000000000007,-4 c-1.4464362,0.017346700000000007 -2.7658956000000003,0.8294696 -3.433,2.113 c-0.18737120000000004,0.3176571 -0.5286992000000003,0.5126062 -0.8975000000000002,0.5126062 s-0.7101288000000002,-0.19494910000000015 -0.8975000000000002,-0.5126062 zm4.114,1.262 c0.3451780000000002,-0.4313344000000001 0.9746656,-0.501178 1.4060000000000001,-0.15600000000000006 s0.501178,0.9746656 0.15600000000000006,1.4060000000000001 l-4,5 c-0.1777517,0.22206420000000007 -0.4416599000000001,0.3579236000000001 -0.7256726000000002,0.3735749000000002 c-0.2840127000000001,0.015651200000000007 -0.5612513,-0.09038700000000002 -0.7623274000000002,-0.2915749000000002 l-2,-2 c-0.3789722000000002,-0.3923789000000003 -0.3735524000000001,-1.0160848 0.0121814,-1.4018186000000001 s1.0094397,-0.3911536000000001 1.4018186000000001,-0.0121814 l1.21,1.21 z" fill="#522f2c"/><path id="Shape" d="m29.99999856863201,43.071001052856445 c0,7.1797017 5.8202983,13 13,13 s13,-5.8202983 13,-13 s-5.8202983,-13 -13,-13 c-7.1762751,0.008266000000000006 -12.991734,5.8237249 -13,13 zm23,-2 c-0.012146100000000003,2.4193405 -1.1430053,4.6969346000000005 -3.063,6.1690000000000005 c-0.6580000000000003,0.6150000000000002 -1.839,1.847 -6.291,5.594 c-0.3728657000000002,0.3155501000000001 -0.9191343,0.3155501000000001 -1.292,0 c-4.369,-3.677 -5.742,-5.081 -6.291,-5.594 c-1.9199947000000002,-1.4720654 -3.0508539,-3.7496595 -3.063,-6.1690000000000005 c0,-6.455 6.844,-7.527 10,-4.069 c3.161,-3.463 10,-2.3810000000000002 10,4.069 z" fill="#522f2c" transform=""/></g></g></svg>