<svg xmlns="http://www.w3.org/2000/svg" width="512" height="512"><path d="M411.836 243.442L320.238 70.048a12.5 12.5 0 0 0-11.035-6.672h-.037c-4.625 0-8.852 2.53-11.037 6.608l-83.93 156.66c-1.386 2.586-1.134 5.744.646 8.077l20.544 26.942a12.48 12.48 0 0 0 9.47 4.92c3.734.155 7.326-1.373 9.823-4.168l32.48-36.348 63.137 74.536a12.51 12.51 0 0 0 9.447 4.428h.108a12.51 12.51 0 0 0 9.413-4.266l37.42-42.667c.215-.246.414-.505.596-.777l4.157-6.22a7.49 7.49 0 0 0 .395-7.659zm-16.732 5.15l-35.217 40.157-63.12-74.517a12.52 12.52 0 0 0-9.388-4.426l-.166-.001c-3.563 0-6.958 1.516-9.336 4.178l-32.38 36.235-15.82-20.747 79.476-148.345L396.51 246.49l-1.405 2.1z"/><path d="M510.535 430.257L451.738 318.96a7.49 7.49 0 0 0-10.119-3.123 7.49 7.49 0 0 0-3.123 10.119L495.4 433.65H295.928c-.236-1.162-86.906-165.627-86.906-165.627l12.882-24.045 13.485 17.685a12.48 12.48 0 0 0 9.47 4.92c3.734.155 7.326-1.373 9.823-4.168l32.48-36.348 63.137 74.536a12.51 12.51 0 0 0 9.447 4.428h.108a12.51 12.51 0 0 0 9.414-4.266c.025-.028.05-.057.074-.086l34.418-40.47 13.99 26.484a7.49 7.49 0 0 0 10.119 3.123 7.49 7.49 0 0 0 3.123-10.119L320.237 70.044a12.5 12.5 0 0 0-11.035-6.672h-.037c-4.625 0-8.852 2.53-11.037 6.61l-97.54 182.074-40.47-76.607c-1.626-3.077-4.41-5.284-7.66-6.2a12.55 12.55 0 0 0-3.38-.472h-.036c-.155 0-.308.01-.462.016l-.38.013c-.115.008-.228.023-.342.034-.17.016-.34.03-.508.052-.15.02-.3.05-.45.076-.125.022-.252.04-.376.065-3.602.736-6.738 3.03-8.52 6.354L64.49 312.607c-.008.015-.014.03-.022.046L1.5 430.194a12.42 12.42 0 0 0 .294 12.345c2.283 3.813 6.3 6.09 10.743 6.09h486.927a12.42 12.42 0 0 0 11.072-18.371zm-278.59-205.02l77.208-144.11 87.073 164.827-36.367 42.76-63.09-74.482c-2.343-2.765-5.765-4.38-9.388-4.426l-.166-.001a12.52 12.52 0 0 0-9.336 4.178l-32.38 36.235-15.82-20.747 2.268-4.233zM16.64 433.65L73.345 327.8l21.862 18.312c2.358 1.975 5.2 2.944 8.046 2.944 3.44 0 6.854-1.425 9.337-4.207l25.075-28.104 16.15 16.024a7.49 7.49 0 0 0 10.55-10.632l-17.99-17.848a12.59 12.59 0 0 0-9.2-3.627 12.57 12.57 0 0 0-8.962 4.18L103 333.1l-22.43-18.787 68.457-127.785 88.338 167.22-21.326 19.655-19.51-19.357a7.49 7.49 0 0 0-10.549 10.632l21.176 21.01c2.443 2.423 5.628 3.64 8.82 3.64 3.037 0 6.08-1.104 8.486-3.323l20.144-18.566 34.977 66.208H16.64z" fill="#522f2c"/></svg>