<svg xmlns="http://www.w3.org/2000/svg" width="387.539" height="387.539" fill="#522f2c"><path d="M232.698 90.18c-.1-.1-.2-.2-.3-.2-29-21-35.3-69.9-35.4-70.6-.5-4.4-4.5-7.5-8.9-7s-7.5 4.5-7 8.9c.3 2.2 6.8 54.2 39.7 80-1 3.6-4.8 10.6-6.2 13.1-1.1 2-2 3.6-2.6 4.9-.1.2-.2.4-.2.5l-4.6 13.4c-5.3 15.9-10.3 30.8-19.4 44.1-11.8 16.7-25.5 31.4-36.6 39.2-7.4 5.1-15.6 8.8-24.2 12.6-7.9 3.6-16.2 7.2-24 12.2-4.2 2.7-8.2 5.7-12 8.9-7.6 6.2-14.8 12-23.7 12.9-1.5.1-2.9.3-4.3.4-9.1.8-18.6 1.6-28.7 7.5-35.4 20.9-34.6 69-34.2 92.1.1 4.4 3.6 7.9 8 7.9h.1c4.4-.1 7.9-3.7 7.9-8.1v-.1c-.7-32.3 2.1-64 26.1-78.1 6.9-4 13.6-4.6 22-5.3 1.5-.1 3-.3 4.5-.4 13.6-1.3 23.4-9.3 32.2-16.3a102.01 102.01 0 0 1 10.5-7.8c6.9-4.4 14.2-7.7 22-11.1 8.9-4 18.2-8.1 26.8-14.1 18.2-12.8 34.4-34.4 40.6-43.2 10.4-15.2 16.1-32 21.5-48.2l4.4-12.8c.4-.7 1.1-2.1 1.9-3.4 5.7-10.3 13.5-24.4 4.1-31.9zm136.4 26c-16.5-30.6-42.9-49.1-76.3-53.5h-.4c-2-.2-3.9-.2-5.7-.2-3.7-.1-7.1-.1-9.1-1.3-.1 0-.1-.1-.2-.1-6.4-3.6-31.6-32.5-33-53-.3-4.4-4.1-7.7-8.5-7.4s-7.7 4.1-7.4 8.5c1.7 26.6 29.9 59.5 41 65.9 5.6 3.3 11.6 3.4 17 3.5 1.6 0 3.1 0 4.5.2 28.4 3.7 49.9 19 64 45.3 11.7 22 17.6 50.7 16.5 81-3.1 76.4-40.9 131.8-106.5 156.1-18.6 7-83.3 21.1-135.4-5.9 0 0-.1 0-.1-.1-9.6-4.8-18.4-12.8-28-25.3l-.1-.2c-7.5-10.1-17.7-24-37.8-16.1-22.3 8.4-22.3 40.7-22.3 54.4 0 4.4 3.6 8 8 8s8-3.6 8-8c0-9.6 0-34.9 12-39.5h.1c7.9-3.1 10.9-.6 19.2 10.6l.3.3c11 14.5 21.7 24 33.5 29.9 22.6 11.7 49 17.6 78.4 17.6a259.66 259.66 0 0 0 12.4-.3c27-1.5 48.9-7.4 57.4-10.7 36.2-13.4 64.7-35.4 84.9-65.5 19.5-29.1 30.3-64.5 31.9-105 1.2-33.1-5.3-64.7-18.3-89.2zm-24 76.3c-1.3-3-5.8-11.7-14.5-12.9h-.3c-4.3-.4-12.6.7-19.7 13.2-16.7 25.7-42.5 39.6-61.3 46.8-29.8 11.6-60 13.6-92 15.6-8.2.5-17.8 1.5-27 5.2-14.5 5.5-24.7 16.5-27.9 30.2s.9 28.1 11.4 39.6c7.1 7.6 17.2 13.7 30.8 18.7 16.5 6 34 9.1 51.6 9 12.8 0 25.6-1.6 38.1-4.6 28.2-6.8 55.3-21.9 78.3-43.7 17.4-16.8 28.8-34 34.9-52.7 7.8-21.7 6.9-45.1-2.4-64.4zm-12.8 59.1c0 .1-.1.2-.1.2-5.3 16.2-15.3 31.3-30.8 46.2-20.9 19.9-45.5 33.6-71 39.8-27.5 6.6-55.3 5.3-80.4-3.9-11-4.1-19.3-9-24.5-14.6-6.8-7.4-9.6-16.5-7.6-25s8.6-15.4 18.1-19c.1 0 .1 0 .2-.1 7.2-2.9 15.2-3.7 22.1-4.1 31.7-2 64.6-4.1 96.6-16.6 38.1-14.5 58.6-36.9 69.1-53.2.1-.1.2-.3.3-.5.9-1.9 2.3-3.6 3.9-5 .9 1 1.6 2.1 2.1 3.3 0 .1.1.2.2.3 7.5 15.5 8.2 34.5 1.8 52.2z"/><path stroke="#000" d="M150.348 306.827h-.658v-.658l.658-.658 3.947-5.263 5.92-5.92 6.58-4.605 7.237-3.947 5.263-2.632 6.58-2.632 6.58-1.316 8.553-1.316 5.92-.658 5.263-.658h21.71l1.974.658 1.974 1.974v5.92l-.658 1.974-2.632 3.29-3.29 3.947-5.263 4.605-5.92 5.263-5.263 4.605-5.92 5.263-5.263 3.29-11.842 6.58-5.92 2.632-6.58 1.316-7.895.658-5.263.658h-15.79l-3.29-1.974-2.632-1.974-1.974-1.974-2.632-3.29-2.632-6.58-.658-2.632v-4.605h3.29l1.974-.658 3.947-.658 1.974-.658 5.263-1.316h2.632l2.632-.658h11.842l1.974-.658h5.263l3.29-.658 2.632-.658h2.632l3.29-.658 3.947-1.316h1.316v-1.316"/><path stroke="#522f2c" d="M124.69 276.563h5.92l3.947-1.316 1.316-.658 2.632-.658 3.947-1.316 1.316-.658h1.316l1.316-.658h1.974l1.316-.658h2.632l1.316-.658h.658l.658-.658 1.974-.658h.658l2.632-1.316h1.974l1.316-1.316h1.316l1.974-.658.658-.658h1.316l1.316-.658h1.316l.658-.658h3.29l1.316-.658h1.316l.658-.658h5.263l1.316-.658h3.947l.658-.658h6.58l.658-.658h3.947l.658-.658h4.605l1.974-.658h2.632l1.974-.658h2.632l.658-.658 1.974-.658h1.316l2.632-.658 1.974-.658h2.632l2.632-.658 1.974-.658h2.632l1.316-.658h1.974l.658-.658h1.974l.658-.658h.658l1.316-.658h1.316l1.316-.658h.658l.658-.658h1.316l.658-.658h2.632l.658-.658h.658v-.658h.658l.658-1.316 2.632-1.316 2.632-2.632 1.316-.658 1.974-1.974 1.974-1.316 5.263-3.947 1.316-1.316 1.316-.658 1.974-.658 2.632-1.316.658-.658 1.316-.658h1.316l2.632-1.316h.658l1.316-.658.658-.658h.658l2.632-1.316h1.316l.658-.658h.658v-.658l.658-.658 6.58-3.947 3.947-3.29 1.974-1.316 1.974-1.974h.658v-.658h.658v-.658l7.237-7.237.658-1.316h1.316l1.316-.658 1.316-1.316 2.632-1.316 3.947-2.632h.658l.658-.658h3.947v.658h.658v1.316h.658l.658.658v.658-.658l-1.974-1.974h-.658l-.658-.658h-.658l-.658-.658h-1.316l-.658-.658h-1.316v-.658h5.92v.658h.658l.658.658v1.316l.658.658v.658l1.316 1.316v.658l.658.658v.658l.658 1.316.658.658v.658l.658 1.316v1.316l.658 1.316.658.658v1.316l.658 1.316v1.316l.658 1.316v.658l.658.658v2.632l.658.658v28.29l-.658.658v3.29l-.658.658v.658l-.658 1.316v1.316l-.658.658v.658l-.658.658v.658l-.658.658v1.316l-.658.658v.658l-.658.658v.658l-.658.658v.658l-.658.658v.658l-.658 1.316v.658l-1.316 1.316v.658l-.658.658v.658l-1.316 1.316v.658l-.658.658v.658l-.658.658v.658l-.658.658-.658 1.316v.658l-.658.658v.658l-.658.658v.658l-.658.658v.658l-.658.658v.658l-1.316 1.316v.658h-.658v1.316h-.658v.658h-.658v.658l-1.316 1.316v.658h-.658v.658h-.658v.658h-.658v.658h-.658v.658l-.658.658-1.974 1.316-.658.658v.658l-.658.658h-.658l-.658.658v.658h-.658v.658h-.658l-1.316 1.316h-.658v.658l-2.632 2.632v.658l-.658.658h-.658v.658l-1.316 1.316h-.658l-4.605 4.605-1.316.658-.658.658-1.316.658-1.974 1.974-1.316.658-1.974 1.316-1.316 1.316-1.316.658-1.316 1.316-1.974.658-1.974 1.974-1.316.658-.658 1.316-2.632 1.316-.658.658-1.316.658h-.658l-.658 1.316-.658.658-1.316.658-1.316 1.316h-1.316l-1.316 1.316h-.658l-1.316 1.316h-.658l-3.947 1.974h-1.316l-5.263 2.632h-1.316l-1.316.658h-1.316l-.658.658h-1.316l-1.316.658h-2.632l-1.316.658h-1.316l-1.316.658h-1.974l-.658.658h-2.632l-.658.658h-2.632v.658h-1.974l-.658.658h-1.974l-1.316.658h-1.316l-1.316.658h-1.974l-1.316.658h-2.632l-1.316.658h-1.974l-1.316.658h-1.974l-.658.658h-4.605l-1.316.658h-51.316v-.658h-1.974v-.658h-.658l-.658-.658h-.658v-.658h-1.316v-.658l-.658-.658h-.658l-1.316-1.316h-.658l-1.316-1.316h-.658l-.658-.658h-.658l-.658-.658h-.658l-.658-.658h-.658l-1.316-1.316h-.658l-.658-.658h-.658v-.658h-.658l-.658-.658h-.658l-1.316-1.316v-.658h-1.316V333.8h-.658l-2.632-2.632h-.658l-.658-.658v-1.316l-.658-.658h-.658v-.658l-.658-.658v-.658l-.658-1.316-2.632-2.632v-.658l-1.316-1.316v-.658l-1.974-1.974v-.658l-.658-.658v-.658h-.658v-1.316l-.658-.658v-1.316l-.658-.658v-1.974l-.658-.658v-.658l-.658-.658v-1.974l-.658-.658v-2.632l-.658-.658v-10.526l.658-.658v-1.316l.658-1.316.658-.658v-1.316h.658v-1.974h.658v-1.316h.658v-1.316h.658v-1.316h1.316l.658-.658 1.316-.658 1.316-1.316h1.316l.658-.658h1.316v-.658h1.316l.658-.658h1.316l1.316-.658h1.316l1.316-.658h1.316l1.316-.658h1.974l.658-.658h1.316l.658-.658 2.632-1.316 1.974-.658.658-.658h1.316l1.316-1.316h1.316l.658-.658h1.974l1.316-.658h.658l.658-.658h1.974l.658-.658h2.632l.658-.658h1.316l.658-.658h.658"/></svg>