<svg xmlns="http://www.w3.org/2000/svg" xmlns:xlink="http://www.w3.org/1999/xlink" version="1.1" style="enable-background:new 0 0 387.539 387.539;" xml:space="preserve" width="387.539" height="387.539"><rect id="backgroundrect" width="100%" height="100%" x="0" y="0" fill="none" stroke="none"/>


















<g class="currentLayer" style=""><title>Layer 1</title><g id="svg_1" class="" fill-opacity="1" fill="#522f2c">
	<g id="svg_2" fill="#522f2c">
		<path d="M232.698,90.179c-0.1-0.1-0.2-0.2-0.3-0.2c-29-21-35.3-69.9-35.4-70.6c-0.5-4.4-4.5-7.5-8.9-7c-4.4,0.5-7.5,4.5-7,8.9    c0.3,2.2,6.8,54.2,39.7,80c-1,3.6-4.8,10.6-6.2,13.1c-1.1,2-2,3.6-2.6,4.9c-0.1,0.2-0.2,0.4-0.2,0.5c-1.6,4.5-3.1,9-4.6,13.4    c-5.3,15.9-10.3,30.8-19.4,44.1c-11.8,16.7-25.5,31.4-36.6,39.2c-7.4,5.1-15.6,8.8-24.2,12.6c-7.9,3.6-16.2,7.2-24,12.2    c-4.2,2.7-8.2,5.7-12,8.9c-7.6,6.2-14.8,12-23.7,12.9c-1.5,0.1-2.9,0.3-4.3,0.4c-9.1,0.8-18.6,1.6-28.7,7.5    c-35.4,20.9-34.6,69-34.2,92.1c0.1,4.4,3.6,7.9,8,7.9h0.1c4.4-0.1,7.9-3.7,7.9-8.1v-0.1c-0.7-32.3,2.1-64,26.1-78.1    c6.9-4,13.6-4.6,22-5.3c1.5-0.1,3-0.3,4.5-0.4c13.6-1.3,23.4-9.3,32.2-16.3c3.3-2.8,6.8-5.4,10.5-7.8c6.9-4.4,14.2-7.7,22-11.1    c8.9-4,18.2-8.1,26.8-14.1c18.2-12.8,34.4-34.4,40.6-43.2c10.4-15.2,16.1-32,21.5-48.2c1.4-4.2,2.9-8.5,4.4-12.8    c0.4-0.7,1.1-2.1,1.9-3.4C234.298,111.779,242.098,97.679,232.698,90.179z" id="svg_3" fill="#522f2c"/>
	</g>
</g><g id="svg_4" class="" fill-opacity="1" fill="#522f2c">
	<g id="svg_5" fill="#522f2c">
		<path d="M369.098,116.179c-16.5-30.6-42.9-49.1-76.3-53.5c-0.1,0-0.2,0-0.4,0c-2-0.2-3.9-0.2-5.7-0.2c-3.7-0.1-7.1-0.1-9.1-1.3    c-0.1,0-0.1-0.1-0.2-0.1c-6.4-3.6-31.6-32.5-33-53c-0.3-4.4-4.1-7.7-8.5-7.4c-4.4,0.3-7.7,4.1-7.4,8.5c1.7,26.6,29.9,59.5,41,65.9    c5.6,3.3,11.6,3.4,17,3.5c1.6,0,3.1,0,4.5,0.2c28.4,3.7,49.9,19,64,45.3c11.7,22,17.6,50.7,16.5,81    c-3.1,76.4-40.9,131.8-106.5,156.1c-18.6,7-83.3,21.1-135.4-5.9c0,0-0.1,0-0.1-0.1c-9.6-4.8-18.4-12.8-28-25.3l-0.1-0.2    c-7.5-10.1-17.7-24-37.8-16.1c-22.3,8.4-22.3,40.7-22.3,54.4c0,4.4,3.6,8,8,8c4.4,0,8-3.6,8-8c0-9.6,0-34.9,12-39.5h0.1    c7.9-3.1,10.9-0.6,19.2,10.6l0.2,0.2l0.1,0.1c11,14.5,21.7,24,33.5,29.9c22.6,11.7,49,17.6,78.4,17.6c4.1,0,8.2-0.1,12.4-0.3    c27-1.5,48.9-7.4,57.4-10.7c36.2-13.4,64.7-35.4,84.9-65.5c19.5-29.1,30.3-64.5,31.9-105    C388.598,172.279,382.098,140.679,369.098,116.179z" id="svg_6" fill="#522f2c"/>
	</g>
</g><g id="svg_7" class="" fill-opacity="1" fill="#522f2c">
	<g id="svg_8" fill="#522f2c">
		<path d="M345.098,192.479c-1.3-3-5.8-11.7-14.5-12.9c-0.1,0-0.2,0-0.3,0c-4.3-0.4-12.6,0.7-19.7,13.2    c-16.7,25.7-42.5,39.6-61.3,46.8c-29.8,11.6-60,13.6-92,15.6c-8.2,0.5-17.8,1.5-27,5.2c-14.5,5.5-24.7,16.5-27.9,30.2    s0.9,28.1,11.4,39.6c7.1,7.6,17.2,13.7,30.8,18.7c16.5,6,34,9.1,51.6,9c12.8,0,25.6-1.6,38.1-4.6c28.2-6.8,55.3-21.9,78.3-43.7    c17.4-16.8,28.8-34,34.9-52.7C355.298,235.179,354.398,211.779,345.098,192.479z M332.298,251.579c0,0.1-0.1,0.2-0.1,0.2    c-5.3,16.2-15.3,31.3-30.8,46.2c-20.9,19.9-45.5,33.6-71,39.8c-27.5,6.6-55.3,5.3-80.4-3.9c-11-4.1-19.3-9-24.5-14.6    c-6.8-7.4-9.6-16.5-7.6-25s8.6-15.4,18.1-19c0.1,0,0.1,0,0.2-0.1c7.2-2.9,15.2-3.7,22.1-4.1c31.7-2,64.6-4.1,96.6-16.6    c38.1-14.5,58.6-36.9,69.1-53.2c0.1-0.1,0.2-0.3,0.3-0.5c0.9-1.9,2.3-3.6,3.9-5c0.9,1,1.6,2.1,2.1,3.3c0,0.1,0.1,0.2,0.2,0.3    C337.998,214.879,338.698,233.879,332.298,251.579z" id="svg_9" fill="#522f2c"/>
	</g>
</g><g id="svg_10">
</g><g id="svg_11">
</g><g id="svg_12">
</g><g id="svg_13">
</g><g id="svg_14">
</g><g id="svg_15">
</g><g id="svg_16">
</g><g id="svg_17">
</g><g id="svg_18">
</g><g id="svg_19">
</g><g id="svg_20">
</g><g id="svg_21">
</g><g id="svg_22">
</g><g id="svg_23">
</g><g id="svg_24">
</g><polyline fill="#522f2c" stroke="#000000" stroke-dashoffset="" fill-rule="nonzero" marker-start="" marker-mid="" marker-end="" id="svg_25" points="150.34844436580818,306.8265049937713 149.69054962071056,306.8265049937713 149.69054962071056,306.16861024867376 150.34844436580818,305.5107155035762 154.29581283639374,300.24755754279533 160.2168655422721,294.326504836917 166.7958129932481,289.72124162123384 174.03265518932164,285.7738731506482 179.2958131501024,283.14229417025786 185.87476060107838,280.5107151898675 192.45370805205437,279.19492569967224 201.0063397383231,277.8791362094771 206.9273924442015,277.22124146437955 212.19055040498222,276.56334671928187 216.7958136206654,276.56334671928187 222.0589715814462,276.56334671928187 225.34844530693414,276.56334671928187 229.29581377751973,276.56334671928187 232.58528750300775,276.56334671928187 233.90107699320296,276.56334671928187 235.8747612284957,277.22124146437955 236.53265597359334,277.8791362094771 237.1905507186909,278.5370309545747 237.8484454637885,279.19492569967224 237.8484454637885,279.8528204447699 237.8484454637885,281.16860993496505 237.8484454637885,282.4843994251603 237.8484454637885,283.8001889153554 237.8484454637885,285.11597840555066 237.1905507186909,287.08966264084347 234.55897173830053,290.3791363663314 231.2694980128125,294.326504836917 226.00634005203176,298.9317680526002 220.0852873461534,304.19492601338095 214.8221293853726,308.80018922906413 208.90107667949422,314.0633471898449 203.63791871871348,317.3528209153329 191.79581330695675,323.9317683663088 185.87476060107838,326.5633473466992 179.2958131501024,327.8791368368944 171.40107620893127,328.537031581992 166.13791824815047,329.19492632708966 158.90107605207692,329.19492632708966 154.29581283639374,329.19492632708966 150.34844436580818,329.19492632708966 147.05897064032018,327.22124209179685 144.4273916599298,325.24755785650405 142.453707424637,323.27387362121124 139.82212844424663,319.9843998957233 138.50633895405144,316.69492617023525 137.19054946385626,313.4054524447473 136.53265471875864,310.77387346435694 136.53265471875864,309.4580839741617 136.53265471875864,308.14229448396657 136.53265471875864,306.8265049937713 136.53265471875864,306.8265049937713 136.53265471875864,306.16861024867376 137.19054946385626,306.16861024867376 137.19054946385626,306.16861024867376 137.84844420895382,306.16861024867376 138.50633895405144,306.16861024867376 139.82212844424663,306.16861024867376 141.79581267953944,305.5107155035762 145.743181150125,304.8528207584785 147.7168653854178,304.19492601338095 150.34844436580818,303.5370312682834 152.98002334619855,302.8791365231857 155.61160232658892,302.8791365231857 158.24318130697935,302.22124177808814 160.2168655422721,302.22124177808814 161.5326550324673,302.22124177808814 162.1905497775649,302.22124177808814 162.84844452266253,302.22124177808814 163.5063392677601,302.22124177808814 164.82212875795528,302.22124177808814 165.4800235030529,302.22124177808814 166.7958129932481,302.22124177808814 168.11160248344328,302.22124177808814 170.08528671873606,302.22124177808814 172.05897095402884,301.5633470329906 174.03265518932164,301.5633470329906 177.32212891480967,301.5633470329906 180.61160264029763,300.905452287893 183.243181620688,300.24755754279533 185.87476060107838,300.24755754279533 189.16423432656637,299.58966279769777 191.13791856185912,298.9317680526002 193.11160279715193,298.2738733075025 194.42739228734712,298.2738733075025 194.42739228734712,297.61597856240496 194.42739228734712,297.61597856240496 194.42739228734712,296.9580838173074 " style="color: rgb(82, 47, 44);" class="" fill-opacity="1"/><polyline fill="#522f2c" stroke="#522f2c" stroke-dashoffset="" fill-rule="nonzero" marker-start="" marker-mid="" marker-end="" id="svg_26" points="124.6905493070019,276.56334671928187 125.34844405209952,276.56334671928187 126.00633879719709,276.56334671928187 127.32212828739227,276.56334671928187 128.63791777758752,276.56334671928187 130.61160201288027,276.56334671928187 132.58528624817308,275.9054519741843 134.55897048346588,275.24755722908674 135.87475997366107,274.58966248398906 138.50633895405144,273.9317677388915 140.48002318934425,273.27387299379393 142.453707424637,272.61597824869636 143.7694969148322,271.9580835035987 145.08528640502738,271.9580835035987 146.40107589522262,271.3001887585011 148.37476013051537,271.3001887585011 149.69054962071056,270.64229401340356 151.0063391109058,270.64229401340356 152.32212860110099,270.64229401340356 153.63791809129617,269.984399268306 154.29581283639374,269.984399268306 154.95370758149136,269.3265045232083 156.92739181678417,268.66860977811075 157.58528656188173,268.66860977811075 158.90107605207692,268.0107150330132 160.2168655422721,267.3528202879155 162.1905497775649,267.3528202879155 163.5063392677601,266.0370307977204 164.82212875795528,266.0370307977204 166.7958129932481,265.3791360526228 167.45370773834566,264.72124130752513 168.7694972285409,264.72124130752513 170.08528671873606,264.06334656242757 171.40107620893127,264.06334656242757 172.05897095402884,263.40545181733 174.03265518932164,263.40545181733 174.69054993441924,263.40545181733 175.3484446795168,263.40545181733 176.66423416971202,262.7475570722323 177.98002365990723,262.7475570722323 178.63791840500483,262.08966232713476 179.95370789520004,262.08966232713476 181.2694973853952,262.08966232713476 182.5852868755904,262.08966232713476 183.90107636578557,262.08966232713476 185.21686585598076,261.4317675820372 186.532655346176,261.4317675820372 187.8484448363712,261.4317675820372 189.16423432656637,261.4317675820372 189.82212907166394,260.77387283693963 191.13791856185912,260.77387283693963 191.79581330695675,260.77387283693963 192.45370805205437,260.77387283693963 193.11160279715193,260.77387283693963 194.42739228734712,260.77387283693963 195.08528703244474,260.77387283693963 195.7431817775423,260.77387283693963 196.40107652263993,260.77387283693963 197.0589712677375,260.11597809184195 197.71686601283508,260.11597809184195 198.37476075793273,260.11597809184195 199.6905502481279,260.11597809184195 200.34844499322546,260.11597809184195 201.0063397383231,260.11597809184195 201.66423448342067,259.4580833467444 202.32212922851826,259.4580833467444 202.98002397361583,259.4580833467444 204.29581346381113,259.4580833467444 204.9537082089087,259.4580833467444 206.26949769910385,259.4580833467444 208.24318193439666,258.8001886016468 209.55897142459187,258.8001886016468 210.87476091478703,258.8001886016468 212.84844515007984,258.14229385654926 214.16423464027503,258.14229385654926 215.4800241304702,258.14229385654926 216.13791887556783,257.4843991114516 218.11160311086059,256.826504366354 219.42739260105577,256.826504366354 222.0589715814462,256.16860962125645 224.03265581673895,255.5107148761588 226.66423479712935,255.5107148761588 229.29581377751973,254.85282013106124 231.2694980128125,254.19492538596361 233.90107699320296,254.19492538596361 235.21686648339812,253.53703064086605 237.1905507186909,253.53703064086605 237.8484454637885,252.87913589576843 239.1642349539837,252.87913589576843 239.8221296990813,252.87913589576843 239.8221296990813,252.87913589576843 240.48002444417887,252.22124115067086 241.1379191892765,252.22124115067086 242.45370867947167,251.56334640557327 243.76949816966686,251.56334640557327 245.08528765986205,250.90545166047562 245.74318240495967,250.90545166047562 246.40107715005723,250.24755691537806 247.71686664025242,250.24755691537806 248.37476138535004,249.58966217028046 249.0326561304476,249.58966217028046 249.69055087554523,249.58966217028046 249.69055087554523,249.58966217028046 249.69055087554523,249.58966217028046 250.34844562064285,249.58966217028046 250.34844562064285,249.58966217028046 251.0063403657404,249.58966217028046 251.0063403657404,249.58966217028046 251.0063403657404,249.58966217028046 251.66423511083804,248.9317674251829 251.66423511083804,248.9317674251829 252.3221298559356,248.9317674251829 252.3221298559356,248.27387268008525 252.98002460103322,248.27387268008525 253.6379193461308,246.9580831898901 256.2694983265212,245.64229369969487 257.5852878167164,244.32650420949966 258.9010773069116,243.0107147193045 260.2168667971068,242.35281997420685 262.1905510323996,240.37913573891413 264.16423526769233,239.0633462487189 266.7958142480827,237.08966201342614 269.42739322847314,235.11597777813333 270.7431827186683,233.80018828793814 272.0589722088635,233.14229354284052 274.0326564441563,232.48439879774295 275.3484459343515,231.82650405264533 276.6642354245467,231.16860930754777 277.32213016964425,230.51071456245015 278.63791965983944,229.85281981735258 279.9537091500347,229.85281981735258 281.26949864022987,229.19492507225496 282.58528813042506,228.53703032715734 283.2431828755226,228.53703032715734 284.55897236571786,227.87913558205977 285.21686711081543,227.22124083696215 285.87476185591305,227.22124083696215 287.19055134610824,226.5633460918646 288.5063408363034,225.90545134676697 289.164235581401,225.90545134676697 289.8221303264986,225.90545134676697 290.48002507159623,225.2475566016694 290.48002507159623,225.2475566016694 291.1379198166938,225.2475566016694 291.1379198166938,225.2475566016694 291.1379198166938,224.58966185657178 291.1379198166938,224.58966185657178 291.1379198166938,224.58966185657178 291.1379198166938,224.58966185657178 291.7958145617914,223.93176711147422 295.08528828727935,221.95808287618144 298.3747620127674,219.98439864088863 302.3221304833529,216.6949249154006 304.2958147186457,215.3791354252054 306.2694989539385,213.40545118991267 306.9273936990361,213.40545118991267 306.9273936990361,212.74755644481502 307.58528844413365,212.74755644481502 307.58528844413365,212.74755644481502 307.58528844413365,212.74755644481502 307.58528844413365,212.08966169971745 307.58528844413365,212.08966169971745 307.58528844413365,212.08966169971745 307.58528844413365,212.08966169971745 308.24318318923133,211.43176695461986 311.53265691471927,208.14229322913187 313.5063411500121,206.16860899383911 314.8221306402073,204.85281950364387 315.4800253853049,203.53703001344869 316.13792013040245,203.53703001344869 316.13792013040245,203.53703001344869 316.13792013040245,203.53703001344869 316.7958148755,203.53703001344869 316.7958148755,203.53703001344869 318.11160436569526,202.87913526835112 319.4273938558905,201.56334577815593 322.0589728362809,200.24755628796075 324.03265707157357,198.9317667977655 326.0063413068664,197.61597730757032 326.66423605196405,197.61597730757032 327.3221307970616,196.95808256247275 327.3221307970616,196.95808256247275 327.9800255421592,196.95808256247275 327.9800255421592,196.95808256247275 327.9800255421592,196.95808256247275 327.9800255421592,196.95808256247275 327.9800255421592,196.95808256247275 328.63792028725675,196.95808256247275 328.63792028725675,196.95808256247275 328.63792028725675,196.95808256247275 329.2958150323544,196.95808256247275 329.2958150323544,196.95808256247275 329.953709777452,196.95808256247275 330.61160452254956,196.95808256247275 331.26949926764723,196.95808256247275 331.26949926764723,197.61597730757032 331.9273940127448,197.61597730757032 331.9273940127448,197.61597730757032 331.9273940127448,197.61597730757032 331.9273940127448,198.27387205266794 331.9273940127448,198.27387205266794 331.9273940127448,198.27387205266794 331.9273940127448,198.27387205266794 331.9273940127448,198.27387205266794 331.9273940127448,198.9317667977655 331.9273940127448,198.9317667977655 332.58528875784236,198.9317667977655 332.58528875784236,198.9317667977655 333.2431835029399,199.58966154286313 333.2431835029399,199.58966154286313 333.2431835029399,199.58966154286313 333.2431835029399,200.24755628796075 333.2431835029399,200.24755628796075 333.2431835029399,199.58966154286313 332.58528875784236,198.9317667977655 331.9273940127448,198.27387205266794 331.26949926764723,197.61597730757032 330.61160452254956,197.61597730757032 329.953709777452,196.95808256247275 329.2958150323544,196.95808256247275 328.63792028725675,196.30018781737513 327.9800255421592,196.30018781737513 327.9800255421592,196.30018781737513 327.3221307970616,196.30018781737513 327.3221307970616,196.30018781737513 326.66423605196405,195.64229307227757 326.66423605196405,195.64229307227757 326.66423605196405,195.64229307227757 326.66423605196405,195.64229307227757 326.0063413068664,195.64229307227757 326.0063413068664,195.64229307227757 326.0063413068664,195.64229307227757 325.3484465617688,195.64229307227757 325.3484465617688,195.64229307227757 325.3484465617688,195.64229307227757 325.3484465617688,194.98439832717995 325.3484465617688,194.98439832717995 325.3484465617688,194.98439832717995 325.3484465617688,194.98439832717995 326.0063413068664,194.98439832717995 327.3221307970616,194.98439832717995 327.9800255421592,194.98439832717995 328.63792028725675,194.98439832717995 329.953709777452,194.98439832717995 330.61160452254956,194.98439832717995 330.61160452254956,194.98439832717995 331.26949926764723,194.98439832717995 331.26949926764723,195.64229307227757 331.9273940127448,195.64229307227757 331.9273940127448,195.64229307227757 332.58528875784236,196.30018781737513 332.58528875784236,196.30018781737513 332.58528875784236,196.95808256247275 332.58528875784236,196.95808256247275 332.58528875784236,196.95808256247275 332.58528875784236,197.61597730757032 332.58528875784236,197.61597730757032 332.58528875784236,197.61597730757032 333.2431835029399,198.27387205266794 333.2431835029399,198.27387205266794 333.2431835029399,198.9317667977655 333.2431835029399,198.9317667977655 333.9010782480376,199.58966154286313 334.55897299313517,200.24755628796075 334.55897299313517,200.9054510330583 335.21686773823274,201.56334577815593 335.21686773823274,202.2212405232535 335.8747624833303,203.53703001344869 336.532657228428,204.1949247585463 336.532657228428,204.85281950364387 337.19055197352554,206.16860899383911 337.19055197352554,207.4843984840343 337.8484467186231,208.8001879742295 338.50634146372073,209.45808271932705 338.50634146372073,210.11597746442465 338.50634146372073,210.7738722095222 339.1642362088183,212.08966169971745 339.1642362088183,212.08966169971745 339.1642362088183,213.40545118991267 339.82213095391586,214.72124068010783 339.82213095391586,215.3791354252054 340.4800256990134,216.03703017030304 340.4800256990134,216.6949249154006 340.4800256990134,216.6949249154006 340.4800256990134,217.35281966049826 340.4800256990134,218.6686091506934 341.13792044411116,219.32650389579106 341.13792044411116,219.98439864088863 341.13792044411116,220.64229338598622 341.13792044411116,221.3001881310838 341.13792044411116,221.95808287618144 341.13792044411116,223.2738723663766 341.13792044411116,223.2738723663766 341.13792044411116,223.93176711147422 341.13792044411116,224.58966185657178 341.13792044411116,225.2475566016694 341.13792044411116,226.5633460918646 341.13792044411116,227.22124083696215 341.13792044411116,227.87913558205977 341.13792044411116,228.53703032715734 341.13792044411116,229.85281981735258 341.13792044411116,230.51071456245015 341.13792044411116,231.16860930754777 341.13792044411116,231.82650405264533 341.13792044411116,233.14229354284052 341.13792044411116,234.4580830330357 341.13792044411116,235.11597777813333 341.13792044411116,235.77387252323095 341.13792044411116,236.4317672683285 341.13792044411116,236.4317672683285 341.13792044411116,237.08966201342614 341.13792044411116,237.7475567585237 341.13792044411116,238.40545150362132 341.13792044411116,239.0633462487189 341.13792044411116,239.72124099381648 341.13792044411116,241.0370304840117 341.13792044411116,241.6949252291093 341.13792044411116,243.66860946440207 341.13792044411116,244.32650420949966 341.13792044411116,244.98439895459722 341.13792044411116,246.30018844479252 341.13792044411116,246.9580831898901 341.13792044411116,247.61597793498768 340.4800256990134,248.27387268008525 340.4800256990134,248.9317674251829 340.4800256990134,250.24755691537806 340.4800256990134,251.56334640557327 339.82213095391586,252.22124115067086 339.82213095391586,252.87913589576843 339.1642362088183,254.19492538596361 339.1642362088183,255.5107148761588 338.50634146372073,256.16860962125645 338.50634146372073,256.826504366354 337.8484467186231,257.4843991114516 337.8484467186231,258.14229385654926 337.19055197352554,258.8001886016468 337.19055197352554,259.4580833467444 337.19055197352554,260.11597809184195 337.19055197352554,260.11597809184195 336.532657228428,260.77387283693963 336.532657228428,260.77387283693963 336.532657228428,261.4317675820372 335.8747624833303,262.08966232713476 335.8747624833303,262.7475570722323 335.21686773823274,263.40545181733 335.21686773823274,263.40545181733 335.21686773823274,264.06334656242757 334.55897299313517,264.72124130752513 334.55897299313517,265.3791360526228 333.9010782480376,266.69492554281794 333.9010782480376,267.3528202879155 333.2431835029399,268.0107150330132 332.58528875784236,268.66860977811075 332.58528875784236,269.3265045232083 331.9273940127448,269.984399268306 331.9273940127448,270.64229401340356 331.26949926764723,271.3001887585011 330.61160452254956,271.9580835035987 330.61160452254956,272.61597824869636 329.953709777452,273.27387299379393 329.953709777452,273.9317677388915 329.953709777452,273.9317677388915 329.2958150323544,274.58966248398906 329.2958150323544,275.24755722908674 328.63792028725675,275.9054519741843 327.9800255421592,277.22124146437955 327.9800255421592,277.8791362094771 327.3221307970616,278.5370309545747 327.3221307970616,279.19492569967224 326.66423605196405,279.8528204447699 326.66423605196405,280.5107151898675 326.0063413068664,281.16860993496505 326.0063413068664,281.8265046800627 325.3484465617688,282.4843994251603 325.3484465617688,283.14229417025786 324.69055181667125,283.8001889153554 324.69055181667125,283.8001889153554 324.03265707157357,284.4580836604531 324.03265707157357,285.11597840555066 323.374762326476,285.11597840555066 323.374762326476,285.7738731506482 323.374762326476,286.4317678957458 323.374762326476,286.4317678957458 322.71686758137844,286.4317678957458 322.71686758137844,286.4317678957458 322.71686758137844,287.08966264084347 322.71686758137844,287.08966264084347 322.0589728362809,287.08966264084347 322.0589728362809,287.74755738594104 322.0589728362809,287.74755738594104 321.4010780911832,288.4054521310386 321.4010780911832,288.4054521310386 321.4010780911832,288.4054521310386 320.74318334608563,289.0633468761363 320.74318334608563,289.72124162123384 320.74318334608563,289.72124162123384 320.08528860098806,289.72124162123384 320.08528860098806,290.3791363663314 320.08528860098806,290.3791363663314 320.08528860098806,290.3791363663314 320.08528860098806,290.3791363663314 320.08528860098806,290.3791363663314 319.4273938558905,290.3791363663314 319.4273938558905,291.037031111429 319.4273938558905,291.037031111429 319.4273938558905,291.037031111429 319.4273938558905,291.037031111429 319.4273938558905,291.037031111429 318.7694991107928,291.037031111429 318.7694991107928,291.69492585652665 318.11160436569526,291.69492585652665 318.11160436569526,292.3528206016242 317.4537096205977,293.0107153467218 315.4800253853049,294.326504836917 314.8221306402073,294.9843995820146 314.8221306402073,295.64229432711215 314.16423589510964,296.30018907220983 313.5063411500121,296.30018907220983 312.8484464049145,296.9580838173074 312.8484464049145,297.61597856240496 312.19055165981683,297.61597856240496 312.19055165981683,298.2738733075025 311.53265691471927,298.2738733075025 310.8747621696217,298.9317680526002 310.8747621696217,298.9317680526002 310.21686742452414,299.58966279769777 310.21686742452414,299.58966279769777 309.55897267942646,299.58966279769777 309.55897267942646,300.24755754279533 309.55897267942646,300.24755754279533 308.9010779343289,300.905452287893 308.9010779343289,300.905452287893 308.24318318923133,301.5633470329906 307.58528844413365,302.22124177808814 307.58528844413365,302.22124177808814 306.9273936990361,302.8791365231857 306.9273936990361,303.5370312682834 306.2694989539385,304.19492601338095 305.61160420884096,304.19492601338095 305.61160420884096,304.8528207584785 305.61160420884096,304.8528207584785 304.9537094637433,305.5107155035762 304.9537094637433,305.5107155035762 304.2958147186457,306.16861024867376 303.63791997354815,306.16861024867376 302.9800252284506,306.8265049937713 302.3221304833529,307.4843997388689 301.66423573825534,308.14229448396657 301.0063409931578,308.80018922906413 300.3484462480601,309.4580839741617 300.3484462480601,309.4580839741617 299.69055150296253,310.1159787192594 299.03265675786497,310.77387346435694 297.7168672676697,311.4317682094545 297.05897252257216,312.08966295455207 295.7431830323769,312.74755769964975 295.08528828727935,313.4054524447473 293.7694987970842,314.72124193494244 292.453709306889,315.3791366800401 290.48002507159623,316.69492617023525 289.164235581401,318.0107156604305 287.8484460912058,318.66861040552806 286.5326566010106,319.9843998957233 284.55897236571786,320.64229464082086 283.2431828755226,321.9580841310161 282.58528813042506,322.6159788761137 281.26949864022987,323.27387362121124 280.61160389513225,324.5896631114065 279.29581440493706,325.24755785650405 277.9800249147419,325.9054526016016 277.32213016964425,326.5633473466992 276.00634067944907,327.22124209179685 275.3484459343515,327.22124209179685 274.6905511892539,328.537031581992 274.0326564441563,329.19492632708966 272.7168669539611,329.8528210721872 272.0589722088635,330.5107158172848 271.4010774637659,331.16861056238236 270.0852879735707,331.16861056238236 269.42739322847314,331.82650530748003 268.7694984833755,332.4844000525776 268.11160373827795,332.4844000525776 267.4537089931803,333.14229479767516 266.7958142480827,333.80018954277284 266.13791950298514,333.80018954277284 264.82213001278996,334.4580842878704 263.50634052259477,335.11597903296797 262.1905510323996,335.77387377806554 260.87476154220434,335.77387377806554 259.55897205200915,336.4317685231632 258.24318256181397,337.0896632682607 256.9273930716188,337.7475580133583 255.6116035814236,338.40545275845585 254.2958140912284,338.40545275845585 252.98002460103322,339.0633475035536 251.66423511083804,339.0633475035536 251.0063403657404,339.72124224865115 249.69055087554523,339.72124224865115 248.37476138535004,340.3791369937487 245.74318240495967,340.3791369937487 244.42739291476448,341.03703173884634 243.11160342456924,341.03703173884634 241.79581393437405,341.6949264839439 241.1379191892765,341.6949264839439 239.8221296990813,341.6949264839439 239.1642349539837,342.35282122904147 238.50634020888614,342.35282122904147 237.8484454637885,342.35282122904147 236.53265597359334,342.35282122904147 235.8747612284957,343.01071597413903 235.21686648339812,343.01071597413903 233.2431822481053,343.01071597413903 233.2431822481053,343.66861071923677 231.2694980128125,343.66861071923677 230.61160326771494,344.32650546433433 229.29581377751973,344.32650546433433 228.63791903242213,344.32650546433433 227.32212954222692,344.9844002094319 226.66423479712935,344.9844002094319 226.00634005203176,344.9844002094319 224.69055056183657,345.6422949545295 224.03265581673895,345.6422949545295 223.3747610716414,345.6422949545295 222.71686632654377,345.6422949545295 221.40107683634858,346.3001896996271 220.0852873461534,346.3001896996271 219.42739260105577,346.3001896996271 218.7694978559582,346.3001896996271 217.45370836576302,346.95808444472465 216.7958136206654,346.95808444472465 215.4800241304702,346.95808444472465 214.16423464027503,347.6159791898222 212.84844515007984,347.6159791898222 212.19055040498222,347.6159791898222 211.53265565988465,348.27387393491995 210.21686616968947,348.27387393491995 208.24318193439666,348.27387393491995 207.58528718929907,348.27387393491995 206.9273924442015,348.27387393491995 205.6116029540063,348.9317686800175 204.29581346381113,348.9317686800175 202.98002397361583,348.9317686800175 202.32212922851826,348.9317686800175 201.0063397383231,348.9317686800175 199.6905502481279,348.9317686800175 198.37476075793273,348.9317686800175 197.71686601283508,348.9317686800175 196.40107652263993,348.9317686800175 195.08528703244474,348.9317686800175 193.76949754224955,348.9317686800175 192.45370805205437,348.9317686800175 191.13791856185912,348.9317686800175 189.82212907166394,348.9317686800175 187.8484448363712,348.9317686800175 186.532655346176,348.9317686800175 185.21686585598076,348.9317686800175 183.243181620688,348.9317686800175 181.92739213049285,348.9317686800175 180.61160264029763,348.9317686800175 179.2958131501024,348.9317686800175 177.98002365990723,348.9317686800175 176.00633942461445,348.9317686800175 174.69054993441924,348.9317686800175 173.374760444224,348.9317686800175 172.71686569912643,348.9317686800175 171.40107620893127,348.9317686800175 170.08528671873606,348.9317686800175 169.42739197363846,348.9317686800175 168.11160248344328,348.9317686800175 167.45370773834566,348.9317686800175 166.7958129932481,348.9317686800175 165.4800235030529,348.9317686800175 164.16423401285772,348.9317686800175 163.5063392677601,348.9317686800175 162.84844452266253,348.9317686800175 160.87476028736972,348.9317686800175 160.2168655422721,348.9317686800175 158.90107605207692,348.9317686800175 158.24318130697935,348.9317686800175 158.24318130697935,348.9317686800175 157.58528656188173,348.9317686800175 156.92739181678417,348.9317686800175 156.92739181678417,348.9317686800175 156.26949707168654,348.9317686800175 156.26949707168654,348.9317686800175 155.61160232658892,348.9317686800175 154.95370758149136,348.9317686800175 154.95370758149136,348.9317686800175 154.29581283639374,348.9317686800175 154.29581283639374,348.27387393491995 153.63791809129617,348.27387393491995 153.63791809129617,348.27387393491995 152.98002334619855,348.27387393491995 152.98002334619855,348.27387393491995 152.32212860110099,348.27387393491995 152.32212860110099,347.6159791898222 151.66423385600336,347.6159791898222 151.66423385600336,347.6159791898222 151.0063391109058,346.95808444472465 151.0063391109058,346.95808444472465 150.34844436580818,346.95808444472465 150.34844436580818,346.3001896996271 149.69054962071056,346.3001896996271 149.69054962071056,346.3001896996271 149.032654875613,346.3001896996271 149.032654875613,345.6422949545295 149.032654875613,345.6422949545295 148.37476013051537,344.9844002094319 147.7168653854178,344.9844002094319 147.7168653854178,344.9844002094319 147.05897064032018,344.32650546433433 146.40107589522262,343.66861071923677 146.40107589522262,343.66861071923677 145.743181150125,343.66861071923677 145.08528640502738,343.01071597413903 145.08528640502738,343.01071597413903 144.4273916599298,342.35282122904147 143.7694969148322,342.35282122904147 143.7694969148322,342.35282122904147 143.11160216973462,341.6949264839439 142.453707424637,341.6949264839439 141.79581267953944,341.03703173884634 141.13791793444182,341.03703173884634 140.48002318934425,340.3791369937487 139.82212844424663,340.3791369937487 139.164233699149,339.72124224865115 138.50633895405144,339.0633475035536 137.84844420895382,339.0633475035536 137.19054946385626,338.40545275845585 136.53265471875864,338.40545275845585 136.53265471875864,337.7475580133583 135.87475997366107,337.7475580133583 135.21686522856345,337.0896632682607 134.55897048346588,337.0896632682607 133.90107573836826,336.4317685231632 133.90107573836826,336.4317685231632 133.24318099327064,335.77387377806554 133.24318099327064,335.11597903296797 132.58528624817308,335.11597903296797 131.92739150307546,335.11597903296797 131.92739150307546,334.4580842878704 131.92739150307546,333.80018954277284 131.2694967579779,333.80018954277284 131.2694967579779,333.80018954277284 130.61160201288027,333.14229479767516 130.61160201288027,333.14229479767516 129.9537072677827,332.4844000525776 129.29581252268508,331.82650530748003 128.63791777758752,331.16861056238236 127.9800230324899,331.16861056238236 127.32212828739227,330.5107158172848 127.32212828739227,329.8528210721872 127.32212828739227,329.8528210721872 127.32212828739227,329.19492632708966 127.32212828739227,329.19492632708966 126.66423354229471,328.537031581992 126.66423354229471,328.537031581992 126.00633879719709,328.537031581992 126.00633879719709,327.8791368368944 126.00633879719709,327.8791368368944 125.34844405209952,327.22124209179685 125.34844405209952,326.5633473466992 124.6905493070019,325.24755785650405 124.03265456190434,324.5896631114065 123.37475981680672,323.9317683663088 122.71686507170915,323.27387362121124 122.05897032661153,322.6159788761137 122.05897032661153,321.9580841310161 121.40107558151391,321.30018938591843 120.74318083641634,320.64229464082086 120.74318083641634,319.9843998957233 120.08528609131872,319.3265051506256 120.08528609131872,319.3265051506256 119.42739134622116,318.66861040552806 119.42739134622116,318.66861040552806 118.76949660112354,318.0107156604305 118.76949660112354,317.3528209153329 118.11160185602597,316.69492617023525 118.11160185602597,316.69492617023525 118.11160185602597,316.69492617023525 118.11160185602597,316.0370314251377 117.45370711092835,316.0370314251377 117.45370711092835,316.0370314251377 117.45370711092835,315.3791366800401 117.45370711092835,314.72124193494244 116.79581236583078,314.0633471898449 116.79581236583078,314.0633471898449 116.79581236583078,313.4054524447473 116.79581236583078,313.4054524447473 116.79581236583078,312.74755769964975 116.13791762073316,312.08966295455207 116.13791762073316,311.4317682094545 116.13791762073316,310.77387346435694 116.13791762073316,310.1159787192594 115.48002287563554,309.4580839741617 115.48002287563554,308.80018922906413 114.82212813053798,308.14229448396657 114.82212813053798,307.4843997388689 114.82212813053798,306.8265049937713 114.82212813053798,306.16861024867376 114.16423338544035,305.5107155035762 114.16423338544035,304.8528207584785 114.16423338544035,304.8528207584785 114.16423338544035,304.19492601338095 114.16423338544035,304.19492601338095 114.16423338544035,303.5370312682834 114.16423338544035,303.5370312682834 114.16423338544035,302.8791365231857 114.16423338544035,302.8791365231857 113.50633864034279,302.22124177808814 113.50633864034279,302.22124177808814 113.50633864034279,301.5633470329906 113.50633864034279,301.5633470329906 113.50633864034279,301.5633470329906 113.50633864034279,300.905452287893 113.50633864034279,300.24755754279533 113.50633864034279,300.24755754279533 113.50633864034279,300.24755754279533 113.50633864034279,299.58966279769777 113.50633864034279,299.58966279769777 113.50633864034279,299.58966279769777 113.50633864034279,298.9317680526002 113.50633864034279,298.2738733075025 113.50633864034279,297.61597856240496 113.50633864034279,297.61597856240496 113.50633864034279,297.61597856240496 113.50633864034279,296.9580838173074 113.50633864034279,296.9580838173074 113.50633864034279,296.30018907220983 113.50633864034279,296.30018907220983 113.50633864034279,295.64229432711215 113.50633864034279,294.9843995820146 113.50633864034279,294.9843995820146 113.50633864034279,294.326504836917 113.50633864034279,294.326504836917 113.50633864034279,294.326504836917 113.50633864034279,293.66861009181946 113.50633864034279,293.66861009181946 113.50633864034279,293.66861009181946 113.50633864034279,293.0107153467218 113.50633864034279,293.0107153467218 113.50633864034279,293.0107153467218 113.50633864034279,292.3528206016242 113.50633864034279,292.3528206016242 113.50633864034279,292.3528206016242 113.50633864034279,291.69492585652665 113.50633864034279,291.69492585652665 114.16423338544035,291.037031111429 114.16423338544035,291.037031111429 114.16423338544035,290.3791363663314 114.16423338544035,290.3791363663314 114.16423338544035,290.3791363663314 114.16423338544035,289.72124162123384 114.82212813053798,288.4054521310386 115.48002287563554,287.74755738594104 115.48002287563554,287.08966264084347 115.48002287563554,286.4317678957458 116.13791762073316,286.4317678957458 116.13791762073316,285.7738731506482 116.13791762073316,285.7738731506482 116.13791762073316,285.7738731506482 116.13791762073316,285.11597840555066 116.13791762073316,285.11597840555066 116.13791762073316,285.11597840555066 116.13791762073316,284.4580836604531 116.79581236583078,284.4580836604531 116.79581236583078,284.4580836604531 116.79581236583078,283.8001889153554 116.79581236583078,283.8001889153554 116.79581236583078,283.14229417025786 117.45370711092835,283.14229417025786 117.45370711092835,282.4843994251603 117.45370711092835,281.8265046800627 118.11160185602597,281.8265046800627 118.11160185602597,281.16860993496505 118.11160185602597,281.16860993496505 118.11160185602597,280.5107151898675 118.76949660112354,280.5107151898675 118.76949660112354,280.5107151898675 118.76949660112354,280.5107151898675 118.76949660112354,280.5107151898675 119.42739134622116,280.5107151898675 119.42739134622116,280.5107151898675 119.42739134622116,280.5107151898675 119.42739134622116,280.5107151898675 120.08528609131872,279.8528204447699 120.08528609131872,279.8528204447699 121.40107558151391,279.19492569967224 122.05897032661153,278.5370309545747 122.71686507170915,277.8791362094771 123.37475981680672,277.8791362094771 124.03265456190434,277.8791362094771 124.6905493070019,277.22124146437955 125.34844405209952,277.22124146437955 126.00633879719709,277.22124146437955 126.00633879719709,276.56334671928187 126.66423354229471,276.56334671928187 127.32212828739227,276.56334671928187 127.9800230324899,275.9054519741843 128.63791777758752,275.9054519741843 129.29581252268508,275.9054519741843 130.61160201288027,275.24755722908674 131.2694967579779,275.24755722908674 131.92739150307546,275.24755722908674 133.24318099327064,274.58966248398906 133.90107573836826,274.58966248398906 134.55897048346588,274.58966248398906 135.87475997366107,273.9317677388915 136.53265471875864,273.9317677388915 137.84844420895382,273.9317677388915 138.50633895405144,273.27387299379393 139.82212844424663,273.27387299379393 140.48002318934425,272.61597824869636 141.79581267953944,271.9580835035987 143.11160216973462,271.3001887585011 145.08528640502738,270.64229401340356 145.743181150125,269.984399268306 146.40107589522262,269.984399268306 147.05897064032018,269.984399268306 147.7168653854178,269.3265045232083 147.7168653854178,269.3265045232083 148.37476013051537,268.66860977811075 148.37476013051537,268.66860977811075 149.032654875613,268.66860977811075 149.69054962071056,268.66860977811075 149.69054962071056,268.66860977811075 149.69054962071056,268.66860977811075 150.34844436580818,268.0107150330132 151.0063391109058,268.0107150330132 151.66423385600336,268.0107150330132 152.32212860110099,268.0107150330132 153.63791809129617,267.3528202879155 154.29581283639374,267.3528202879155 154.95370758149136,266.69492554281794 156.26949707168654,266.69492554281794 156.92739181678417,266.69492554281794 157.58528656188173,266.0370307977204 158.24318130697935,266.0370307977204 158.90107605207692,266.0370307977204 159.55897079717454,266.0370307977204 160.2168655422721,266.0370307977204 160.87476028736972,265.3791360526228 161.5326550324673,265.3791360526228 161.5326550324673,265.3791360526228 162.1905497775649,265.3791360526228 162.1905497775649,265.3791360526228 162.84844452266253,264.72124130752513 162.84844452266253,264.72124130752513 162.84844452266253,264.72124130752513 163.5063392677601,264.72124130752513 163.5063392677601,264.72124130752513 " style="color: rgb(82, 47, 44);" class="" fill-opacity="1" stroke-opacity="1"/></g></svg>