<svg xmlns="http://www.w3.org/2000/svg" height="682.667" viewBox="0 0 512.201 512" width="682.667"><path d="M40.863 266.145c4.734 7.828 9.633 15.918 13.996 24.1a206.45 206.45 0 0 1 24.82 74.172c2.62 29.668 7.613 59.078 14.926 87.953 5.625 20.906 16.113 59.816 49.535 59.816 26.215 0 46.492-50.074 60.246-148.82 4.633-32.707 18.773-35.918 25.883-36.8.28 0 .512.113.785.156l1.44 3.95a187.59 187.59 0 0 0 15.07 28.52c2.9 4.813 5.836 9.633 8.53 14.66a123.89 123.89 0 0 1 14.883 44.457 421.03 421.03 0 0 0 6.922 44.816c.05.2 0 .402.078.598a10.41 10.41 0 0 1 .203.547c.664 2.887 1.273 5.777 2.074 8.645 3.414 12.742 10.563 39.254 33.656 39.254 7.43 0 27.168 0 40.32-94.402 2.422-17.07 8.848-19.234 12.68-19.8l1.06.188c2.56.527 9.387 1.918 11.945 19.625 13.125 94.387 32.855 94.387 40.277 94.387 23.04 0 29.934-25.523 33.648-39.176a350.43 350.43 0 0 0 9.309-54.691c2.105-15.645 7.172-30.746 14.934-44.492 2.688-5.078 5.633-9.94 8.53-14.797a184.95 184.95 0 0 0 14.953-28.391c14.316-36.344 18.14-86.133-14.055-116.906a81.68 81.68 0 0 0-34.816-19.387c17.47-64.23 6.504-122.805-30.133-157.934-49.3-47.32-137.156-48.293-192.066-3.57-54.914-44.723-142.773-43.75-192.102 3.594C-11.852 84.6-5.723 163.185 16.812 220.667a299.82 299.82 0 0 0 24.047 45.48zm444.86 58.316a171.08 171.08 0 0 1-13.652 25.805c-3.105 5.12-6.215 10.242-9.027 15.594-8.777 15.64-14.492 32.813-16.836 50.594a337.38 337.38 0 0 1-8.801 52.051c-3.523 12.88-8.02 26.625-17.03 26.625-3.414-1.05-14.97-17.96-23.562-79.734-2.824-19.63-11.375-31.07-25.46-33.945-1.1-.242-2.234-.43-3.363-.555a8.36 8.36 0 0 0-.937.086 8.44 8.44 0 0 0-.992-.094c-16.066 1.8-25.734 13.395-28.723 34.508-8.6 61.816-20.215 78.72-23.422 79.734-9.242 0-13.715-13.738-17.203-26.676a338.91 338.91 0 0 1-8.773-52.05 140.18 140.18 0 0 0-16.812-50.594c-2.812-5.293-5.895-10.387-8.977-15.465a172.72 172.72 0 0 1-13.73-25.883c-12.234-31.215-16.043-73.453 9.992-98.387s75.027-24.508 102.898.902c2.508 2.44 34.695 33.137 63.547 33.137 4.7 0 8.53-3.82 8.53-8.535a8.53 8.53 0 0 0-8.53-8.53c-14.645 0-33.187-12.656-44.426-21.93a83.97 83.97 0 0 1 60.28-12.152c13.137 2.074 25.352 8.043 35.063 17.133 26.086 24.977 21.676 68.56 9.95 98.363zM50.215 48.758C94.34 6.4 177.5 7.1 224.715 50.16c3.328 3.242 54.57 52.438 99.652 52.438 4.7 0 8.53-3.82 8.53-8.535a8.53 8.53 0 0 0-8.53-8.53c-29.96 0-65.902-28.332-80.812-41.32 48.094-37.008 125.3-35.72 167.254 4.56 32.273 30.95 41.43 83.84 25.12 142.453a98.74 98.74 0 0 0-68.785 18.5c-35.125-26.863-89.676-25.598-120.56 4.027-26.395 25.293-28.512 63.445-20.48 96.43-21.293 3.9-34.32 20.855-38.562 50.813-14.84 106.105-34.875 134.137-43.402 134.137-18.773 0-26.902-24.355-33.082-47.258a555.57 555.57 0 0 1-14.422-85.332 222.78 222.78 0 0 0-26.719-80.316c-4.574-8.602-9.598-16.895-14.504-24.918a283.83 283.83 0 0 1-22.75-42.88C12.2 162.098 6.012 91.094 50.215 48.758zm-1.047 129.93c2.66 0 5.168-1.238 6.785-3.355s2.148-4.863 1.45-7.43C38.348 98.047 82.87 75.016 84.895 74c4.102-2.125 5.77-7.13 3.758-11.3s-6.97-5.965-11.18-4.07c-.574.28-59.453 29.645-36.543 113.758a8.54 8.54 0 0 0 8.238 6.289zm0 0"/><path d="M119.566 51.395c0 4.715-3.82 8.535-8.535 8.535a8.53 8.53 0 1 1 0-17.065 8.54 8.54 0 0 1 8.535 8.53zm161.442 183.98c-13.1 7.422-33.945 32.715-19.14 75.316.996 2.887 3.457 5.02 6.457 5.598s6.078-.496 8.074-2.8a8.54 8.54 0 0 0 1.59-8.398c-13.652-39.25 10.324-54.195 11.504-54.895 4.1-2.34 5.508-7.555 3.164-11.648s-7.56-5.508-11.648-3.164zm34.824-4.777c0 4.7-3.82 8.53-8.53 8.53a8.54 8.54 0 0 1-8.535-8.53 8.54 8.54 0 0 1 8.535-8.535 8.53 8.53 0 0 1 8.53 8.535zm0 0"/></svg>