<svg xmlns="http://www.w3.org/2000/svg" width="51" height="64"><path d="M2.075 2.5c-3.58 6.34-2.68 22.23 3.9 33.2 3.76 6.3 6 13.06 7.73 18.5 1.68 5.17 3.37 10 5 9.78s2.1-6.34 2.45-10c.64-6.5 1.24-12.66 5.3-12.66s5 5.5 5.92 11.3C33.215 58 34.215 64 37.495 64c2.17 0 3.85-7.86 5.2-14.17l1.78-7.85c.88-3.5 2-6.7 3-9.82 1.85-5.16 3.52-10.07 3.52-14.67 0-8.13-.95-12.52-3.16-14.65s-5.94-2.4-11.7-2.2c-11.56.4-20.4 11.78-20.48 11.9a1.27 1.27 0 0 1-2-1.54 40.27 40.27 0 0 1 8.14-7.64C19.495 2.1 14.435 0 5.495 0c-1.32 0-2.48.84-3.42 2.5z" fill="#522f2c"/></svg>