<svg xmlns="http://www.w3.org/2000/svg" data-name="Layer 1" width="51" height="64"><rect id="backgroundrect" width="100%" height="100%" x="0" y="0" fill="none" stroke="none" class="" style=""/><title>medicine gylph</title><g class="currentLayer" style=""><title>Layer 1</title><path d="M2.0751686859130842,2.4899999999999984 C-1.504831314086914,8.829999999999998 -0.6048313140869155,24.72 5.965168685913085,35.7 c3.7600000000000002,6.29 6,13.06 7.73,18.51 c1.6800000000000002,5.17 3.37,10 5,9.78 s2.1,-6.34 2.45,-10 c0.6400000000000001,-6.51 1.24,-12.66 5.29,-12.66 s5,5.49 5.92,11.3 C33.215168685913085,58 34.215168685913085,64 37.495168685913086,64 c2.17,0 3.85,-7.86 5.2,-14.17 c0.55,-2.5700000000000003 1.12,-5.24 1.78,-7.85 c0.8800000000000001,-3.49 2,-6.71 3,-9.82 C49.325168685913084,27 50.995168685913086,22.090000000000003 50.995168685913086,17.490000000000002 c0,-8.13 -0.9500000000000001,-12.52 -3.16,-14.65 s-5.94,-2.39 -11.71,-2.2 c-11.56,0.4 -20.4,11.78 -20.48,11.9 a1.27,1.27 0 0 1 -2,-1.54 a40.27,40.27 0 0 1 8.14,-7.640000000000001 C19.495168685913086,2.1099999999999994 14.435168685913084,0 5.495168685913086,0 C4.175168685913086,0 3.0151686859130855,0.8399999999999999 2.0751686859130842,2.4899999999999984 z" id="svg_1" class="selected" fill-opacity="1" fill="#522f2c"/></g></svg>