<svg xmlns="http://www.w3.org/2000/svg" width="128" height="128" fill="#522f2c"><path d="M118.5 112.8c-1.6-2.7-4.6-4.2-7.7-4.1-2.5-2.7-6.6-3.4-9.8-1.6-2.5-.8-5.3-.3-7.5 1.2l-.7-22.1L105.3 74c7.1 1.4 14-3.2 15.4-10.3.2-.8.3-2.3.2-3.3a10.82 10.82 0 0 0-1.8-15.2c-1.5-1.2-3.2-1.9-5-2.2-.4-2.5-1.5-4.8-3.4-6.6v-1c0-9.5-7.7-17.1-17.2-17.2-3.1-5.7-9-9.2-15.4-9.2-2 0-4 .3-5.8 1-5.9-6.6-16-7.2-22.6-1.3-.8.7-1.5 1.5-2.2 2.4-.5-.1-1-.1-1.4-.1-7 0-12.9 5.2-13.8 12.2C26.6 23.9 22 28.3 21 34c-3.9 1.5-6.6 4.9-7.2 9C8 44 4 49.5 4.9 55.4c.3 1.8 1 3.6 2.2 5-.3 4.8 2.3 9.3 5.8 11.7 2.1 1.4 6.3 2.8 9.8 1.9l12.6 12.2-.8 23.5c-1.4-.8-3-1.1-4.5-1.1-2.1-3.2-6.7-3.8-9.8-1.6-4.5-1.4-9.3 1.2-10.7 5.8-2.9 1.9-4.7 5.2-4.7 8.7 0 1 .8 1.7 1.8 1.8h115a1.79 1.79 0 0 0 1.8-1.8c-.2-3.5-2-6.8-4.9-8.7zM89.7 84.3c-.4.3-.5.8-.5 1.3l.9 27.3c-1.2.8-2.3 1.9-3.1 3.2l.8-23.9c0-.5-.2-.9-.5-1.3l-12-12.1.9-.9 8.8 8.9a1.75 1.75 0 0 0 2.5 0c.3-.3.5-.7.5-1.2l.5-16.6h.2l.3 10c0 1 .8 1.7 1.8 1.7.4 0 .9-.2 1.2-.5l8.6-8.3c.4.2.7.5 1.1.7zm-20.8 1.1l4-4 11.4 11.5-.9 26.9H70.1zm16-13.1l-.3 9.1-5.8-5.9c2.3-.4 4.4-1.5 6.1-3.2zm7.3-3.3c1.5-.2 2.9-.7 4.2-1.4.4.7.9 1.4 1.5 2.1L92.4 75zm18.5-24.3a1.79 1.79 0 0 0 1.8 1.8c4 0 7.3 3.3 7.3 7.3a7.33 7.33 0 0 1-1.9 4.9c-.3.4-.5.9-.4 1.4 0 .4.1.7.1 1.1 0 5.3-4.3 9.6-9.6 9.6-2.3 0-4.6-.8-6.3-2.4-1.2-1.1-2.2-2.4-2.7-4-.4-1.2-1.7-1.6-2.7-.8-2.1 1.6-5.3 2.6-7.6 1.9l1.4-1.4c.3 0 1.2 0 1.6-.1 6.6-.7 11.4-6.7 10.6-13.3 0-.1 0-.3-.1-.4 3.6-2.1 6.3-5.4 7.7-9.3.5 1.2.8 2.4.8 3.7zm-76.6-18c1 0 1.7-.8 1.8-1.8 0-5.7 4.6-10.3 10.3-10.4.7 0 1.3.1 2 .2a1.84 1.84 0 0 0 1.8-.8c3.7-5.8 11.4-7.5 17.3-3.8a11.84 11.84 0 0 1 3.3 3c.5.6 1.4.9 2.1.5 7-3.1 15.3 0 18.4 7.1.3.7 1 1.1 1.7 1h.9c7.5 0 13.7 6.1 13.7 13.6 0 5.3-3.1 10.1-7.9 12.4-.8.4-1.2 1.2-.9 2 1.2 4.5-1.4 9.2-6 10.4-2.2.6-4.5.3-6.4-.8-.5-.3-1-.3-1.5-.1-6.7 2.5-14-.9-16.3-7.3-.3-.9-1.3-1.3-2.2-1-4 1.4-8.4.6-11.7-2-.8-.6-2.2-.6-2.7.8-2.4 6.5-9.5 9.9-16 7.6-5.5-2-9-7.5-8.2-13.3.1-.5-.1-1-.4-1.4-3.6-3.9-3.3-10 .6-13.6 1.5-1.4 3.9-2.3 6.3-2.3zm43.1 36.8l-8.6 8.7-.4-13.6c2.3 2.6 5.5 4.3 9 4.9zm-17.3-8.4l-.3 9-8-7.7c.9-1 1.7-2.1 2.3-3.3 1.9 1.1 3.9 1.8 6 2zm-49.4 6.1c0-.4 0-.7.1-1.1.1-.5-.1-1-.4-1.4-2.7-3-2.5-7.6.5-10.3a7.33 7.33 0 0 1 4.9-1.9 1.79 1.79 0 0 0 1.8-1.8c0-2.7 1.4-5.2 3.7-6.7.3 2.4 1.3 4.7 2.8 6.6v1.1c0 8.8 7.2 16 16 16 1.1 0 2.2-.1 3.3-.4l11.2 10.8c-5.6 1.3-9.8-2.2-11.2-6-.3-.9-1.3-1.3-2.2-1-3.1 1-6.4.5-9-1.5-.8-.6-1.9-.5-2.5.3-.1.1-.2.3-.3.5-1.8 5-7.3 7.6-12.3 5.8-3.8-1.4-6.4-5-6.4-9zm33.2 31.7l15.6-15.8-1.4 42.7H44.6zm5.4-17.3l-5.8 5.9-.3-9.1c1.8 1.5 3.9 2.7 6.1 3.2zM35.8 69l-.2 6-5.5-5.4c.6-.6 1-1.3 1.5-2.1 1.3.8 2.7 1.3 4.2 1.5zm-9.5 3.7c.4-.2.8-.4 1.1-.7l8.6 8.3a1.75 1.75 0 0 0 2.5 0c.3-.3.5-.7.5-1.2l.3-10h.2l.5 16.5c0 1 .8 1.7 1.8 1.7.4 0 .9-.2 1.2-.5l10.9-11c.8-.1 1.5-.3 2.2-.5L40.7 91c-.3.3-.5.8-.5 1.3l.8 23.9c-.8-1.3-1.8-2.4-3.1-3.2l.9-27.4c0-.5-.2-1-.5-1.3zm9.6 47.1H8.5a6.96 6.96 0 0 1 3.3-4.2c.5-.2.8-.7.9-1.2.6-3.1 4-4.9 7-3.7.6.2 1.2.2 1.7-.2 2.3-1.7 5-1 6.4 1.1.4.6 1.1.8 1.7.7 2.2-.4 4.3.7 5.4 2.6.2.3.4.5.7.7 1.6.9 2.8 2.4 3.2 4.2zm25.5 0l1.4-43.4c0-.5-.2-1-.5-1.3L46.8 60c.8-.4 1.5-.8 2.2-1.3l11 10.7a1.75 1.75 0 0 0 2.5 0c.3-.3.5-.7.5-1.2l.4-13c.4 0 .7-.1 1.1-.1l.6 21.4c0 1 .8 1.7 1.8 1.7.4 0 .9-.2 1.2-.5l13.8-14c1-.1 2.1-.4 3-.7.3.1.5.2.8.3L75 74.2l-9.1 9.2c-.3.3-.5.8-.5 1.3l1.2 35h-5.2zm27.8 0a6.96 6.96 0 0 1 3.3-4.2c.5-.2.8-.7.9-1.2.6-3 3.5-5.1 7-3.7.6.2 1.2.2 1.7-.2 1.9-1.4 5-.9 6.4 1.1.4.6 1.1.8 1.7.7 2.2-.4 4.3.7 5.4 2.6.2.3.4.5.7.7 1.6.9 2.8 2.4 3.2 4.2zm8.4-74c.3 0 .5-.1.7-.2 5.1-2.4 7.6-8.2 5.9-13.6-.3-.9-1.3-1.4-2.2-1.1s-1.4 1.3-1.1 2.2c1.2 3.7-.5 7.7-4.1 9.3-.9.4-1.3 1.5-.8 2.3.3.7.9 1.1 1.6 1.1z"/></svg>